<svg xmlns="http://www.w3.org/2000/svg" width="920.973" height="324.747" viewBox="0 0 920.973 324.747">
  <g id="Grupo_55756" data-name="Grupo 55756" transform="translate(-339.514 -5886)">
    <g id="viajero" transform="translate(712.499 5886)">
      <g id="Grupo_55744" data-name="Grupo 55744" transform="translate(19.501 68.275)">
        <path id="Trazado_101651" data-name="Trazado 101651" d="M149.828,270.359h-6.216l-4.383-4.318-4.383,4.318H40.325l-4.383-4.318-4.383,4.318H25.344a5.843,5.843,0,0,1-5.843-5.843V243a5.843,5.843,0,0,1,5.843-5.843H31.56l4.383,4.318,4.383-4.318h94.522l4.745,4.318,4.02-4.318h6.216A5.843,5.843,0,0,1,155.672,243v21.512a5.843,5.843,0,0,1-5.844,5.843Z" transform="translate(-19.501 -237.16)" fill="#c59191"/>
        <path id="Trazado_101652" data-name="Trazado 101652" d="M450.61,237.744A5.844,5.844,0,0,1,453.9,243v21.512a5.844,5.844,0,0,1-3.295,5.26v.584h6.216a5.843,5.843,0,0,0,5.843-5.843V243a5.843,5.843,0,0,0-5.843-5.843H450.61Z" transform="translate(-326.499 -237.16)" fill="#b98080"/>
        <g id="Grupo_55743" data-name="Grupo 55743" transform="translate(12.059)">
          <path id="Trazado_101653" data-name="Trazado 101653" d="M420.164,237.159h8.765v33.2h-8.765Z" transform="translate(-316.877 -237.159)" fill="#eaf6ff"/>
          <path id="Trazado_101654" data-name="Trazado 101654" d="M61.39,237.159h8.765v33.2H61.39Z" transform="translate(-61.39 -237.159)" fill="#eaf6ff"/>
        </g>
      </g>
      <path id="Trazado_101655" data-name="Trazado 101655" d="M113.14,296.607c-.7.588-1.551,5.335-2.494,5.542l-7.113-2.755-14.411,3.167a17.53,17.53,0,0,0-13.767,17.122V347.66H179.365V319.683A17.53,17.53,0,0,0,165.6,302.562l-14.411-3.167-7.113,2.755c-.943-.207-1.792-4.954-2.494-5.542Z" transform="translate(-39.774 -211.218)" fill="#ffe180"/>
      <path id="Trazado_101656" data-name="Trazado 101656" d="M231.371,242.716a5.828,5.828,0,0,1-2.494-1.224c-1.293-1.082-6.413-2.7-6.413-4.483l4.318-4.043V219.211h-24.25v17.8a5.843,5.843,0,0,1-4.589,5.707l16.714,17.53Z" transform="translate(-127.071 -156.103)" fill="#ffcebf"/>
      <g id="Grupo_55745" data-name="Grupo 55745" transform="translate(90.946 63.108)">
        <path id="Trazado_101657" data-name="Trazado 101657" d="M278.531,241.492a5.841,5.841,0,0,1-2.095-4.483v-17.8l-8.765,4.383v17.8a5.843,5.843,0,0,0,4.589,5.707l.544.119" transform="translate(-267.671 -219.211)" fill="#ffb09e"/>
        <path id="Trazado_101658" data-name="Trazado 101658" d="M320.8,311.462l10.819,2.378a17.53,17.53,0,0,1,13.767,17.122v23.594h8.765V326.579a17.53,17.53,0,0,0-13.767-17.122l-14.411-3.167Z" transform="translate(-305.505 -281.221)" fill="#fbd270"/>
      </g>
      <g id="Grupo_55751" data-name="Grupo 55751" transform="translate(53.002 0)">
        <g id="Grupo_55746" data-name="Grupo 55746">
          <path id="Trazado_101659" data-name="Trazado 101659" d="M219.582,125.163v19.283a24.739,24.739,0,0,1-12.592,21.542c-1.251.706-2.57-3.013-3.945-2.531-1.542.541-3.154,5.251-4.819,5.477a24.954,24.954,0,0,1-3.359.226,24.592,24.592,0,0,1-12.639-3.474c-.57-.336-1.122-.7-1.659-1.081a24.682,24.682,0,0,1-10.416-20.16V125.163h49.429Z" transform="translate(-160.283 -89.13)" fill="#ffcebf"/>
          <path id="Trazado_101660" data-name="Trazado 101660" d="M245.347,125.163v19.283a24.718,24.718,0,0,1-37.353,21.24q-.833-.548-1.659-1.081c8.727,3.579,18.412,1.873,24.416-4.219,6.083-6.176,5.9-14.334,5.832-15.941V125.163h8.765Z" transform="translate(-186.048 -89.13)" fill="#ffb09e"/>
          <path id="Trazado_101661" data-name="Trazado 101661" d="M219.582,29.358H170.154V13.6A13.6,13.6,0,0,1,183.755,0h22.227a13.6,13.6,0,0,1,13.6,13.6V29.358Z" transform="translate(-160.284 0)" fill="#c59191"/>
          <path id="Trazado_101662" data-name="Trazado 101662" d="M272.922,0h-8.765a13.6,13.6,0,0,1,13.6,13.6V29.358h8.765V13.6A13.6,13.6,0,0,0,272.922,0Z" transform="translate(-227.225 0)" fill="#b98080"/>
          <path id="Trazado_101663" data-name="Trazado 101663" d="M139.05,112.177h62.808a3.18,3.18,0,0,0,3.18-3.18v-3.841a3.18,3.18,0,0,0-3.18-3.18H139.05a3.18,3.18,0,0,0-3.18,3.18V109A3.18,3.18,0,0,0,139.05,112.177Z" transform="translate(-135.87 -72.619)" fill="#685e68"/>
          <path id="Trazado_101664" data-name="Trazado 101664" d="M343.4,101.977h-8.765a3.18,3.18,0,0,1,3.18,3.18V109a3.18,3.18,0,0,1-3.18,3.18H343.4a3.18,3.18,0,0,0,3.18-3.18v-3.841A3.18,3.18,0,0,0,343.4,101.977Z" transform="translate(-277.416 -72.619)" fill="#554e56"/>
        </g>
        <g id="Grupo_55749" data-name="Grupo 55749" transform="translate(20.469 44.551)">
          <g id="Grupo_55747" data-name="Grupo 55747">
            <path id="Trazado_101665" data-name="Trazado 101665" d="M209.161,163.9a2.191,2.191,0,0,1-2.191-2.191v-4.769a2.191,2.191,0,0,1,4.382,0v4.769A2.191,2.191,0,0,1,209.161,163.9Z" transform="translate(-206.97 -154.752)" fill="#554e56"/>
          </g>
          <g id="Grupo_55748" data-name="Grupo 55748" transform="translate(23.848)">
            <path id="Trazado_101666" data-name="Trazado 101666" d="M292,163.9a2.191,2.191,0,0,1-2.191-2.191v-4.769a2.191,2.191,0,0,1,4.383,0v4.769A2.192,2.192,0,0,1,292,163.9Z" transform="translate(-289.807 -154.752)" fill="#554e56"/>
          </g>
        </g>
        <g id="Grupo_55750" data-name="Grupo 55750" transform="translate(27.623 63.292)">
          <path id="Trazado_101667" data-name="Trazado 101667" d="M238.781,225.457h-.127a12.162,12.162,0,0,1-5.7-1.493,2.191,2.191,0,0,1,2.108-3.842,7.716,7.716,0,0,0,7.431,0,2.191,2.191,0,0,1,2.108,3.842,12.15,12.15,0,0,1-5.823,1.494Z" transform="translate(-231.819 -219.85)" fill="#ffb09e"/>
        </g>
        <path id="Trazado_101668" data-name="Trazado 101668" d="M344.882,149.075h-3.035V137.409h3.035a5.833,5.833,0,0,1,0,11.666Z" transform="translate(-282.549 -97.851)" fill="#ffcebf"/>
        <path id="Trazado_101669" data-name="Trazado 101669" d="M145.18,149.075h3.035V137.409H145.18a5.833,5.833,0,0,0,0,11.666Z" transform="translate(-138.346 -97.851)" fill="#ffb09e"/>
      </g>
      <path id="Trazado_101670" data-name="Trazado 101670" d="M220.889,299.386l-7.113-1.563a5.82,5.82,0,0,1-2.491-1.228l-13.81,13.81a.584.584,0,0,1-.826,0l-13.81-13.81a5.821,5.821,0,0,1-2.491,1.228l-7.113,1.563,19.7,19.7a5.843,5.843,0,0,0,8.264,0Z" transform="translate(-109.475 -211.209)" fill="#82aee3"/>
      <path id="Trazado_101671" data-name="Trazado 101671" d="M285.5,302.334l10.162,2.233,5.172-5.172-7.113-1.563a5.828,5.828,0,0,1-2.494-1.224Z" transform="translate(-189.422 -211.218)" fill="#528fd8"/>
      <g id="Grupo_55753" data-name="Grupo 55753" transform="translate(30.366 107.205)">
        <g id="Grupo_55752" data-name="Grupo 55752">
          <path id="Trazado_101672" data-name="Trazado 101672" d="M60.162,415.2a2.922,2.922,0,0,1-2.922-2.922V378.993a3.006,3.006,0,0,1,4.288-2.645L85.85,387.413V415.2Z" transform="translate(-57.24 -375.008)" fill="#8ddaa7"/>
          <path id="Trazado_101673" data-name="Trazado 101673" d="M213.842,384.79v27.788H156.624V384.79l26.053-11.853a6.194,6.194,0,0,1,5.113,0Z" transform="translate(-128.013 -372.385)" fill="#8ddaa7"/>
          <path id="Trazado_101674" data-name="Trazado 101674" d="M355.38,415.2V387.413L379.7,376.348a3.006,3.006,0,0,1,4.288,2.645V412.28a2.922,2.922,0,0,1-2.922,2.922Z" transform="translate(-269.549 -375.008)" fill="#b0e6a0"/>
          <path id="Trazado_101675" data-name="Trazado 101675" d="M421.563,376.348l-4.541,2.066a2.867,2.867,0,0,1,.064.579v33.286a2.922,2.922,0,0,1-2.922,2.922h8.765a2.922,2.922,0,0,0,2.922-2.922V378.993A3.006,3.006,0,0,0,421.563,376.348Z" transform="translate(-311.41 -375.008)" fill="#8ddaa7"/>
        </g>
        <path id="Trazado_101676" data-name="Trazado 101676" d="M185.233,372.385v40.193H156.624V384.79l26.053-11.853A6.175,6.175,0,0,1,185.233,372.385Z" transform="translate(-128.013 -372.385)" fill="#b0e6a0"/>
      </g>
      <g id="Grupo_55754" data-name="Grupo 55754" transform="translate(22.321 120.086)">
        <path id="Trazado_101677" data-name="Trazado 101677" d="M438.732,437.867H430.2a5.1,5.1,0,0,1-5.1-5.1V422.233a5.105,5.105,0,0,1,5.105-5.105h8.533a2.047,2.047,0,0,1,2,1.613,40.928,40.928,0,0,1,0,17.513A2.048,2.048,0,0,1,438.732,437.867Z" transform="translate(-311.148 -417.128)" fill="#ffcebf"/>
        <path id="Trazado_101678" data-name="Trazado 101678" d="M453,418.741a2.047,2.047,0,0,0-2-1.613h-8.533c-.049,0-.1.006-.147.007a2.044,2.044,0,0,1,1.914,1.605,40.926,40.926,0,0,1,0,17.513,2.044,2.044,0,0,1-1.914,1.605c.049,0,.1.008.147.008H451a2.047,2.047,0,0,0,2-1.613,40.921,40.921,0,0,0,0-17.513Z" transform="translate(-323.413 -417.128)" fill="#ffb09e"/>
        <path id="Trazado_101679" data-name="Trazado 101679" d="M32.243,437.867h8.533a5.1,5.1,0,0,0,5.1-5.1V422.233a5.105,5.105,0,0,0-5.105-5.105H32.243a2.047,2.047,0,0,0-2,1.613,40.927,40.927,0,0,0,0,17.513A2.047,2.047,0,0,0,32.243,437.867Z" transform="translate(-29.295 -417.128)" fill="#ffcebf"/>
        <path id="Trazado_101680" data-name="Trazado 101680" d="M47.855,417.128H39.322c-.029,0-.057.006-.086.007a5.1,5.1,0,0,1,4.958,5.1v10.529a5.1,5.1,0,0,1-4.959,5.1c.029,0,.056.007.085.007h8.533a5.1,5.1,0,0,0,5.1-5.1V422.233A5.1,5.1,0,0,0,47.855,417.128Z" transform="translate(-36.374 -417.128)" fill="#ffb09e"/>
      </g>
    </g>
    <path id="Trazado_101713" data-name="Trazado 101713" d="M15.3-14.465H9.961V0H5.676V-14.465H.439v-3.308H15.3Zm15.747-3.308V-6.14A6.686,6.686,0,0,1,30.2-2.716a5.456,5.456,0,0,1-2.417,2.2A8.515,8.515,0,0,1,24.06.244,7.356,7.356,0,0,1,18.945-1.44a6.008,6.008,0,0,1-1.9-4.614V-17.773H21.35v11.8q.073,2.917,2.71,2.917a2.623,2.623,0,0,0,2.014-.732,3.423,3.423,0,0,0,.684-2.38V-17.773Zm9.277,11.5H38V0H33.716V-17.773H40.71a7.8,7.8,0,0,1,4.944,1.4A4.759,4.759,0,0,1,47.437-12.4a5.782,5.782,0,0,1-.751,3.076,5.33,5.33,0,0,1-2.35,1.978L48.047-.183V0h-4.59ZM38-9.583h2.71a2.436,2.436,0,0,0,1.837-.641,2.474,2.474,0,0,0,.616-1.788,2.5,2.5,0,0,0-.623-1.8,2.413,2.413,0,0,0-1.831-.653H38ZM54.59,0H50.317V-17.773H54.59ZM66.736-4.724a1.761,1.761,0,0,0-.665-1.465,8.269,8.269,0,0,0-2.338-1.086A22.427,22.427,0,0,1,61-8.362q-3.455-1.7-3.455-4.663a4.182,4.182,0,0,1,.861-2.606,5.566,5.566,0,0,1,2.435-1.758,9.477,9.477,0,0,1,3.54-.629,8.29,8.29,0,0,1,3.436.684,5.441,5.441,0,0,1,2.362,1.947,5.084,5.084,0,0,1,.842,2.887H66.748a2.149,2.149,0,0,0-.665-1.685,2.593,2.593,0,0,0-1.8-.6,2.924,2.924,0,0,0-1.813.507,1.554,1.554,0,0,0-.665,1.288,1.565,1.565,0,0,0,.732,1.239A9.236,9.236,0,0,0,65.112-10.6,15.778,15.778,0,0,1,68.14-9.326a5.087,5.087,0,0,1,2.881,4.578,4.34,4.34,0,0,1-1.758,3.662A7.819,7.819,0,0,1,64.441.244a9.566,9.566,0,0,1-3.912-.775,5.9,5.9,0,0,1-2.637-2.124,5.534,5.534,0,0,1-.885-3.107h4.3a2.726,2.726,0,0,0,.739,2.106,3.491,3.491,0,0,0,2.4.677,2.758,2.758,0,0,0,1.678-.458A1.511,1.511,0,0,0,66.736-4.724ZM87.17-14.465H81.836V0H77.551V-14.465H72.314v-3.308H87.17ZM97.607-3.32H91.736L90.71,0H86.133l6.519-17.773H96.68L103.247,0h-4.6ZM92.761-6.628h3.821l-1.917-6.165Z" transform="translate(749 6062)" fill="#111e61"/>
    <g id="Grupo_55755" data-name="Grupo 55755">
      <path id="Trazado_101683" data-name="Trazado 101683" d="M396.414,364.316l-32.23,99.672-98.734-.228,51.011-157.53Z" transform="translate(113.072 5746.759)" fill="#f8ac3e"/>
      <path id="Trazado_101684" data-name="Trazado 101684" d="M309.32,305.54,258.309,463.07l-6.314-.017L219.3,363.22l84.838-61.45Z" transform="translate(120.214 5747.449)" fill="#fdbe63"/>
      <path id="Trazado_101707" data-name="Trazado 101707" d="M-26.64-3.3a1.545,1.545,0,0,0-.593-1.3,7.138,7.138,0,0,0-2.14-.923,10.335,10.335,0,0,1-2.461-1.037,3.284,3.284,0,0,1-1.749-2.865,3.118,3.118,0,0,1,1.261-2.549,5.1,5.1,0,0,1,3.274-1,5.53,5.53,0,0,1,2.382.492,3.909,3.909,0,0,1,1.644,1.4,3.6,3.6,0,0,1,.6,2.017H-26.64a2.005,2.005,0,0,0-.628-1.569,2.594,2.594,0,0,0-1.8-.567,2.709,2.709,0,0,0-1.692.466,1.551,1.551,0,0,0-.6,1.3,1.4,1.4,0,0,0,.65,1.173,7.493,7.493,0,0,0,2.145.914,9.865,9.865,0,0,1,2.4,1.011,3.816,3.816,0,0,1,1.327,1.3,3.388,3.388,0,0,1,.422,1.718A3.045,3.045,0,0,1-25.642-.769a5.318,5.318,0,0,1-3.327.945,6.251,6.251,0,0,1-2.553-.514,4.289,4.289,0,0,1-1.811-1.419,3.537,3.537,0,0,1-.646-2.109h2.224a2.07,2.07,0,0,0,.721,1.688,3.156,3.156,0,0,0,2.065.6,2.742,2.742,0,0,0,1.745-.47A1.517,1.517,0,0,0-26.64-3.3ZM-18.483.176A4.419,4.419,0,0,1-21.775-1.1a4.639,4.639,0,0,1-1.261-3.406v-.264a5.706,5.706,0,0,1,.549-2.544,4.181,4.181,0,0,1,1.542-1.745,4.078,4.078,0,0,1,2.215-.624,3.733,3.733,0,0,1,3,1.239,5.24,5.24,0,0,1,1.059,3.507v.861h-6.214A2.856,2.856,0,0,0-20.1-2.215a2.362,2.362,0,0,0,1.736.686A2.892,2.892,0,0,0-15.97-2.716l1.151,1.1A3.845,3.845,0,0,1-16.343-.294,4.774,4.774,0,0,1-18.483.176Zm-.255-8.147a1.8,1.8,0,0,0-1.419.615,3.189,3.189,0,0,0-.69,1.714h4.069V-5.8a2.6,2.6,0,0,0-.571-1.622A1.785,1.785,0,0,0-18.738-7.972Zm10.705.413a5.285,5.285,0,0,0-.87-.07A1.959,1.959,0,0,0-10.881-6.5V0h-2.136V-9.51h2.039l.053,1.063A2.406,2.406,0,0,1-8.78-9.686a2,2,0,0,1,.756.123Zm4.86,4.852,2.013-6.8H1.046L-2.25,0H-4.1L-7.427-9.51h2.215ZM4.649,0H2.514V-9.51H4.649ZM2.382-11.979a1.133,1.133,0,0,1,.312-.817,1.179,1.179,0,0,1,.892-.325,1.193,1.193,0,0,1,.9.325,1.125,1.125,0,0,1,.316.817,1.1,1.1,0,0,1-.316.8,1.2,1.2,0,0,1-.9.321,1.188,1.188,0,0,1-.892-.321A1.107,1.107,0,0,1,2.382-11.979Zm8.5,10.45A1.931,1.931,0,0,0,12.208-2a1.591,1.591,0,0,0,.563-1.151h2.013a3.137,3.137,0,0,1-.554,1.657A3.632,3.632,0,0,1,12.823-.272a4.191,4.191,0,0,1-1.916.448A4.055,4.055,0,0,1,7.743-1.116,5.124,5.124,0,0,1,6.574-4.685V-4.9A5.039,5.039,0,0,1,7.734-8.38,4.018,4.018,0,0,1,10.9-9.686a3.907,3.907,0,0,1,2.764.989,3.542,3.542,0,0,1,1.121,2.6H12.771a1.956,1.956,0,0,0-.558-1.345,1.8,1.8,0,0,0-1.332-.527,1.879,1.879,0,0,0-1.6.751A3.834,3.834,0,0,0,8.71-4.939V-4.6A3.9,3.9,0,0,0,9.268-2.29,1.878,1.878,0,0,0,10.881-1.529ZM18.668,0H16.532V-9.51h2.136ZM16.4-11.979a1.133,1.133,0,0,1,.312-.817,1.179,1.179,0,0,1,.892-.325,1.193,1.193,0,0,1,.9.325,1.125,1.125,0,0,1,.316.817,1.1,1.1,0,0,1-.316.8,1.2,1.2,0,0,1-.9.321,1.188,1.188,0,0,1-.892-.321A1.107,1.107,0,0,1,16.4-11.979Zm4.192,7.137a5.607,5.607,0,0,1,.554-2.518A4.044,4.044,0,0,1,22.7-9.083a4.383,4.383,0,0,1,2.3-.6,4.154,4.154,0,0,1,3.125,1.239,4.874,4.874,0,0,1,1.3,3.287l.009.5a5.658,5.658,0,0,1-.541,2.514A4,4,0,0,1,27.347-.431a4.415,4.415,0,0,1-2.325.606A4.125,4.125,0,0,1,21.8-1.165a5.133,5.133,0,0,1-1.208-3.573Zm2.136.185a3.832,3.832,0,0,0,.606,2.3,1.971,1.971,0,0,0,1.688.831,1.95,1.95,0,0,0,1.683-.844,4.232,4.232,0,0,0,.6-2.47,3.782,3.782,0,0,0-.62-2.285A1.979,1.979,0,0,0,25-7.972a1.96,1.96,0,0,0-1.661.831A4.152,4.152,0,0,0,22.729-4.658ZM-37.2,20.176A4.419,4.419,0,0,1-40.491,18.9a4.639,4.639,0,0,1-1.261-3.406v-.264a5.706,5.706,0,0,1,.549-2.544,4.181,4.181,0,0,1,1.542-1.745,4.078,4.078,0,0,1,2.215-.624,3.733,3.733,0,0,1,3,1.239,5.24,5.24,0,0,1,1.059,3.507v.861H-39.6a2.856,2.856,0,0,0,.787,1.863,2.362,2.362,0,0,0,1.736.686,2.892,2.892,0,0,0,2.391-1.187l1.151,1.1a3.845,3.845,0,0,1-1.525,1.323A4.774,4.774,0,0,1-37.2,20.176Zm-.255-8.147a1.8,1.8,0,0,0-1.419.615,3.189,3.189,0,0,0-.69,1.714h4.069V14.2a2.6,2.6,0,0,0-.571-1.622A1.785,1.785,0,0,0-37.455,12.028ZM-26.4,17.416a.968.968,0,0,0-.47-.87,5,5,0,0,0-1.56-.527,8.02,8.02,0,0,1-1.819-.58,2.428,2.428,0,0,1-1.6-2.241,2.531,2.531,0,0,1,1.037-2.057,4.1,4.1,0,0,1,2.637-.826,4.266,4.266,0,0,1,2.755.844,2.677,2.677,0,0,1,1.05,2.188H-26.5a1.316,1.316,0,0,0-.457-1.024,1.752,1.752,0,0,0-1.213-.409,1.893,1.893,0,0,0-1.147.325,1.025,1.025,0,0,0-.444.87.866.866,0,0,0,.413.765,5.68,5.68,0,0,0,1.67.549,7.9,7.9,0,0,1,1.973.659A2.794,2.794,0,0,1-24.645,16a2.342,2.342,0,0,1,.347,1.3,2.478,2.478,0,0,1-1.063,2.079,4.535,4.535,0,0,1-2.786.8,4.917,4.917,0,0,1-2.083-.422,3.428,3.428,0,0,1-1.424-1.16A2.746,2.746,0,0,1-32.164,17h2.074a1.5,1.5,0,0,0,.571,1.165,2.22,2.22,0,0,0,1.4.409,2.16,2.16,0,0,0,1.283-.321A.993.993,0,0,0-26.4,17.416Zm12.287-2.074a5.662,5.662,0,0,1-1,3.52A3.209,3.209,0,0,1-17.8,20.176a3.23,3.23,0,0,1-2.5-1.028v4.509h-2.136V10.49h1.969l.088.967a3.137,3.137,0,0,1,2.558-1.143,3.242,3.242,0,0,1,2.729,1.3,5.813,5.813,0,0,1,.989,3.6Zm-2.127-.185A3.966,3.966,0,0,0-16.8,12.9a1.843,1.843,0,0,0-1.622-.835,1.965,1.965,0,0,0-1.881,1.081v4.219a1.983,1.983,0,0,0,1.9,1.107,1.841,1.841,0,0,0,1.6-.822A4.366,4.366,0,0,0-16.238,15.157Zm8.121,5.019A4.419,4.419,0,0,1-11.408,18.9a4.639,4.639,0,0,1-1.261-3.406v-.264a5.706,5.706,0,0,1,.549-2.544,4.181,4.181,0,0,1,1.542-1.745,4.078,4.078,0,0,1,2.215-.624,3.733,3.733,0,0,1,3,1.239A5.24,5.24,0,0,1-4.3,15.061v.861h-6.214a2.856,2.856,0,0,0,.787,1.863,2.362,2.362,0,0,0,1.736.686A2.892,2.892,0,0,0-5.6,17.284l1.151,1.1a3.845,3.845,0,0,1-1.525,1.323A4.774,4.774,0,0,1-8.117,20.176Zm-.255-8.147a1.8,1.8,0,0,0-1.419.615,3.189,3.189,0,0,0-.69,1.714h4.069V14.2a2.6,2.6,0,0,0-.571-1.622A1.785,1.785,0,0,0-8.372,12.028Zm10.705.413a5.285,5.285,0,0,0-.87-.07A1.959,1.959,0,0,0-.514,13.5V20H-2.65V10.49H-.611l.053,1.063a2.406,2.406,0,0,1,2.145-1.239,2,2,0,0,1,.756.123ZM9.1,20a3.3,3.3,0,0,1-.246-.888,3.325,3.325,0,0,1-2.5,1.063,3.355,3.355,0,0,1-2.338-.817,2.615,2.615,0,0,1-.905-2.021A2.7,2.7,0,0,1,4.245,15a5.473,5.473,0,0,1,3.23-.813h1.31v-.624a1.666,1.666,0,0,0-.413-1.182,1.638,1.638,0,0,0-1.257-.444,1.881,1.881,0,0,0-1.2.365,1.129,1.129,0,0,0-.466.927H3.318a2.37,2.37,0,0,1,.519-1.463A3.455,3.455,0,0,1,5.247,10.7a4.955,4.955,0,0,1,1.991-.387,3.99,3.99,0,0,1,2.663.839,2.993,2.993,0,0,1,1.02,2.36V17.8a4.861,4.861,0,0,0,.36,2.048V20ZM6.754,18.462a2.429,2.429,0,0,0,1.191-.308,2.055,2.055,0,0,0,.839-.826V15.535H7.633a3.148,3.148,0,0,0-1.784.413,1.338,1.338,0,0,0-.6,1.169,1.248,1.248,0,0,0,.409.98A1.583,1.583,0,0,0,6.754,18.462Zm8.385-7.972.062,1.1a3.419,3.419,0,0,1,2.769-1.274q2.971,0,3.023,3.4V20H18.857V13.839a1.958,1.958,0,0,0-.391-1.34,1.645,1.645,0,0,0-1.279-.435,2.058,2.058,0,0,0-1.925,1.169V20H13.126V10.49Zm7.629,4.685a5.654,5.654,0,0,1,1.02-3.529,3.267,3.267,0,0,1,2.733-1.332,3.1,3.1,0,0,1,2.443,1.055V6.5H31.1V20H29.167l-.105-.984a3.148,3.148,0,0,1-2.558,1.16,3.248,3.248,0,0,1-2.7-1.345A5.861,5.861,0,0,1,22.768,15.175Zm2.136.185a3.958,3.958,0,0,0,.558,2.263,1.811,1.811,0,0,0,1.586.813,2.017,2.017,0,0,0,1.916-1.169V13.206a1.986,1.986,0,0,0-1.9-1.143,1.824,1.824,0,0,0-1.6.822A4.408,4.408,0,0,0,24.9,15.359Zm8.024-.2a5.607,5.607,0,0,1,.554-2.518,4.044,4.044,0,0,1,1.556-1.723,4.383,4.383,0,0,1,2.3-.6,4.154,4.154,0,0,1,3.125,1.239,4.874,4.874,0,0,1,1.3,3.287l.009.5a5.658,5.658,0,0,1-.541,2.514,4,4,0,0,1-1.547,1.714,4.415,4.415,0,0,1-2.325.606,4.125,4.125,0,0,1-3.221-1.34,5.133,5.133,0,0,1-1.208-3.573Zm2.136.185a3.832,3.832,0,0,0,.606,2.3,1.971,1.971,0,0,0,1.688.831,1.95,1.95,0,0,0,1.683-.844,4.232,4.232,0,0,0,.6-2.47,3.782,3.782,0,0,0-.62-2.285,2.089,2.089,0,0,0-3.344-.013A4.152,4.152,0,0,0,35.064,15.342Z" transform="translate(423.406 6125.063)" fill="#fff"/>
      <path id="Trazado_101685" data-name="Trazado 101685" d="M396.414,364.316l-32.23,99.672-98.734-.228,51.011-157.53Z" transform="translate(265.072 5746.759)" fill="#8f4ead"/>
      <path id="Trazado_101686" data-name="Trazado 101686" d="M309.32,305.54,258.309,463.07l-6.314-.017L219.3,363.22l84.838-61.45Z" transform="translate(272.213 5747.449)" fill="#c293d8"/>
      <path id="Trazado_101687" data-name="Trazado 101687" d="M396.414,364.316l-32.23,99.672-98.734-.228,51.011-157.53Z" transform="translate(418.072 5746.759)" fill="#1f9eef"/>
      <path id="Trazado_101688" data-name="Trazado 101688" d="M309.32,305.54,258.309,463.07l-6.314-.017L219.3,363.22l84.838-61.45Z" transform="translate(425.213 5747.449)" fill="#39acef"/>
      <path id="Trazado_101709" data-name="Trazado 101709" d="M-50.361,0h-2.224l-5.7-9.079V0h-2.224V-12.8h2.224l5.722,9.114V-12.8h2.206Zm6.609.176A4.419,4.419,0,0,1-47.043-1.1,4.639,4.639,0,0,1-48.3-4.509v-.264a5.706,5.706,0,0,1,.549-2.544,4.181,4.181,0,0,1,1.542-1.745A4.078,4.078,0,0,1-44-9.686a3.733,3.733,0,0,1,3,1.239,5.24,5.24,0,0,1,1.059,3.507v.861h-6.214a2.856,2.856,0,0,0,.787,1.863,2.362,2.362,0,0,0,1.736.686,2.892,2.892,0,0,0,2.391-1.187l1.151,1.1A3.845,3.845,0,0,1-41.612-.294,4.774,4.774,0,0,1-43.752.176Zm-.255-8.147a1.8,1.8,0,0,0-1.419.615,3.189,3.189,0,0,0-.69,1.714h4.069V-5.8a2.6,2.6,0,0,0-.571-1.622A1.785,1.785,0,0,0-44.007-7.972Zm9.633,6.442A1.931,1.931,0,0,0-33.047-2a1.591,1.591,0,0,0,.563-1.151h2.013a3.137,3.137,0,0,1-.554,1.657A3.632,3.632,0,0,1-32.432-.272a4.191,4.191,0,0,1-1.916.448,4.055,4.055,0,0,1-3.164-1.292,5.124,5.124,0,0,1-1.169-3.568V-4.9a5.039,5.039,0,0,1,1.16-3.476,4.018,4.018,0,0,1,3.164-1.305,3.907,3.907,0,0,1,2.764.989,3.542,3.542,0,0,1,1.121,2.6h-2.013a1.956,1.956,0,0,0-.558-1.345,1.8,1.8,0,0,0-1.332-.527,1.879,1.879,0,0,0-1.6.751,3.834,3.834,0,0,0-.571,2.281V-4.6a3.9,3.9,0,0,0,.558,2.307A1.878,1.878,0,0,0-34.374-1.529Zm9.7,1.705A4.419,4.419,0,0,1-27.962-1.1a4.639,4.639,0,0,1-1.261-3.406v-.264a5.706,5.706,0,0,1,.549-2.544,4.181,4.181,0,0,1,1.542-1.745,4.078,4.078,0,0,1,2.215-.624,3.733,3.733,0,0,1,3,1.239,5.24,5.24,0,0,1,1.059,3.507v.861H-27.07a2.856,2.856,0,0,0,.787,1.863,2.362,2.362,0,0,0,1.736.686,2.892,2.892,0,0,0,2.391-1.187l1.151,1.1A3.845,3.845,0,0,1-22.531-.294,4.774,4.774,0,0,1-24.671.176Zm-.255-8.147a1.8,1.8,0,0,0-1.419.615,3.189,3.189,0,0,0-.69,1.714h4.069V-5.8a2.6,2.6,0,0,0-.571-1.622A1.785,1.785,0,0,0-24.926-7.972Zm11.057,5.388a.968.968,0,0,0-.47-.87,5,5,0,0,0-1.56-.527,8.02,8.02,0,0,1-1.819-.58,2.428,2.428,0,0,1-1.6-2.241,2.531,2.531,0,0,1,1.037-2.057,4.1,4.1,0,0,1,2.637-.826,4.266,4.266,0,0,1,2.755.844,2.677,2.677,0,0,1,1.05,2.188h-2.136a1.316,1.316,0,0,0-.457-1.024,1.752,1.752,0,0,0-1.213-.409,1.893,1.893,0,0,0-1.147.325,1.025,1.025,0,0,0-.444.87.866.866,0,0,0,.413.765,5.68,5.68,0,0,0,1.67.549,7.9,7.9,0,0,1,1.973.659A2.794,2.794,0,0,1-12.116-4a2.342,2.342,0,0,1,.347,1.3A2.478,2.478,0,0,1-12.832-.62a4.535,4.535,0,0,1-2.786.8A4.917,4.917,0,0,1-17.7-.246a3.428,3.428,0,0,1-1.424-1.16A2.746,2.746,0,0,1-19.635-3h2.074a1.5,1.5,0,0,0,.571,1.165,2.22,2.22,0,0,0,1.4.409,2.16,2.16,0,0,0,1.283-.321A.993.993,0,0,0-13.869-2.584ZM-7.638,0H-9.773V-9.51h2.136ZM-9.905-11.979a1.133,1.133,0,0,1,.312-.817,1.179,1.179,0,0,1,.892-.325,1.193,1.193,0,0,1,.9.325,1.125,1.125,0,0,1,.316.817,1.1,1.1,0,0,1-.316.8,1.2,1.2,0,0,1-.9.321,1.188,1.188,0,0,1-.892-.321A1.107,1.107,0,0,1-9.905-11.979Zm4.192,7.154a5.654,5.654,0,0,1,1.02-3.529A3.267,3.267,0,0,1-1.96-9.686,3.1,3.1,0,0,1,.483-8.631V-13.5H2.619V0H.686L.58-.984A3.148,3.148,0,0,1-1.978.176a3.248,3.248,0,0,1-2.7-1.345A5.861,5.861,0,0,1-5.713-4.825Zm2.136.185a3.958,3.958,0,0,0,.558,2.263,1.811,1.811,0,0,0,1.586.813A2.017,2.017,0,0,0,.483-2.733V-6.794a1.986,1.986,0,0,0-1.9-1.143,1.824,1.824,0,0,0-1.6.822A4.408,4.408,0,0,0-3.577-4.641ZM10.529,0a3.3,3.3,0,0,1-.246-.888A3.325,3.325,0,0,1,7.787.176,3.355,3.355,0,0,1,5.449-.642a2.615,2.615,0,0,1-.905-2.021A2.7,2.7,0,0,1,5.673-5,5.473,5.473,0,0,1,8.9-5.81h1.31v-.624A1.666,1.666,0,0,0,9.8-7.616,1.638,1.638,0,0,0,8.543-8.06a1.881,1.881,0,0,0-1.2.365,1.129,1.129,0,0,0-.466.927H4.746a2.37,2.37,0,0,1,.519-1.463A3.455,3.455,0,0,1,6.675-9.3a4.955,4.955,0,0,1,1.991-.387,3.99,3.99,0,0,1,2.663.839,2.993,2.993,0,0,1,1.02,2.36V-2.2a4.861,4.861,0,0,0,.36,2.048V0ZM8.183-1.538a2.429,2.429,0,0,0,1.191-.308,2.055,2.055,0,0,0,.839-.826V-4.465H9.062a3.148,3.148,0,0,0-1.784.413,1.338,1.338,0,0,0-.6,1.169,1.248,1.248,0,0,0,.409.98A1.583,1.583,0,0,0,8.183-1.538Zm6-3.287a5.654,5.654,0,0,1,1.02-3.529,3.267,3.267,0,0,1,2.733-1.332,3.1,3.1,0,0,1,2.443,1.055V-13.5h2.136V0H20.584l-.105-.984A3.148,3.148,0,0,1,17.921.176a3.248,3.248,0,0,1-2.7-1.345A5.861,5.861,0,0,1,14.186-4.825Zm2.136.185a3.958,3.958,0,0,0,.558,2.263,1.811,1.811,0,0,0,1.586.813,2.017,2.017,0,0,0,1.916-1.169V-6.794a1.986,1.986,0,0,0-1.9-1.143,1.824,1.824,0,0,0-1.6.822A4.408,4.408,0,0,0,16.321-4.641ZM28.934.176A4.419,4.419,0,0,1,25.642-1.1a4.639,4.639,0,0,1-1.261-3.406v-.264a5.706,5.706,0,0,1,.549-2.544,4.181,4.181,0,0,1,1.542-1.745,4.078,4.078,0,0,1,2.215-.624,3.733,3.733,0,0,1,3,1.239,5.24,5.24,0,0,1,1.059,3.507v.861H26.534a2.856,2.856,0,0,0,.787,1.863,2.362,2.362,0,0,0,1.736.686,2.892,2.892,0,0,0,2.391-1.187l1.151,1.1A3.845,3.845,0,0,1,31.074-.294,4.774,4.774,0,0,1,28.934.176Zm-.255-8.147a1.8,1.8,0,0,0-1.419.615,3.189,3.189,0,0,0-.69,1.714h4.069V-5.8a2.6,2.6,0,0,0-.571-1.622A1.785,1.785,0,0,0,28.679-7.972ZM39.735-2.584a.968.968,0,0,0-.47-.87,5,5,0,0,0-1.56-.527,8.02,8.02,0,0,1-1.819-.58,2.428,2.428,0,0,1-1.6-2.241,2.531,2.531,0,0,1,1.037-2.057,4.1,4.1,0,0,1,2.637-.826,4.266,4.266,0,0,1,2.755.844,2.677,2.677,0,0,1,1.05,2.188H39.63a1.316,1.316,0,0,0-.457-1.024,1.752,1.752,0,0,0-1.213-.409,1.893,1.893,0,0,0-1.147.325,1.025,1.025,0,0,0-.444.87.866.866,0,0,0,.413.765,5.68,5.68,0,0,0,1.67.549,7.9,7.9,0,0,1,1.973.659A2.794,2.794,0,0,1,41.489-4a2.342,2.342,0,0,1,.347,1.3A2.478,2.478,0,0,1,40.772-.62a4.535,4.535,0,0,1-2.786.8A4.917,4.917,0,0,1,35.9-.246a3.428,3.428,0,0,1-1.424-1.16A2.746,2.746,0,0,1,33.97-3h2.074a1.5,1.5,0,0,0,.571,1.165,2.22,2.22,0,0,0,1.4.409A2.16,2.16,0,0,0,39.3-1.745.993.993,0,0,0,39.735-2.584Zm8.042-2.259a5.607,5.607,0,0,1,.554-2.518,4.044,4.044,0,0,1,1.556-1.723,4.383,4.383,0,0,1,2.3-.6,4.154,4.154,0,0,1,3.125,1.239,4.874,4.874,0,0,1,1.3,3.287l.009.5a5.658,5.658,0,0,1-.541,2.514A4,4,0,0,1,54.532-.431a4.415,4.415,0,0,1-2.325.606,4.125,4.125,0,0,1-3.221-1.34,5.133,5.133,0,0,1-1.208-3.573Zm2.136.185a3.832,3.832,0,0,0,.606,2.3,1.971,1.971,0,0,0,1.688.831,1.95,1.95,0,0,0,1.683-.844,4.232,4.232,0,0,0,.6-2.47,3.782,3.782,0,0,0-.62-2.285,1.979,1.979,0,0,0-1.683-.844,1.96,1.96,0,0,0-1.661.831A4.152,4.152,0,0,0,49.913-4.658ZM-30.7,15.175a5.654,5.654,0,0,1,1.02-3.529,3.267,3.267,0,0,1,2.733-1.332A3.1,3.1,0,0,1-24.5,11.369V6.5h2.136V20H-24.3l-.105-.984a3.148,3.148,0,0,1-2.558,1.16,3.248,3.248,0,0,1-2.7-1.345A5.861,5.861,0,0,1-30.7,15.175Zm2.136.185a3.958,3.958,0,0,0,.558,2.263,1.811,1.811,0,0,0,1.586.813A2.017,2.017,0,0,0-24.5,17.267V13.206a1.986,1.986,0,0,0-1.9-1.143,1.824,1.824,0,0,0-1.6.822A4.408,4.408,0,0,0-28.564,15.359Zm12.612,4.816A4.419,4.419,0,0,1-19.244,18.9,4.639,4.639,0,0,1-20.5,15.491v-.264a5.706,5.706,0,0,1,.549-2.544,4.181,4.181,0,0,1,1.542-1.745,4.078,4.078,0,0,1,2.215-.624,3.733,3.733,0,0,1,3,1.239,5.24,5.24,0,0,1,1.059,3.507v.861h-6.214a2.856,2.856,0,0,0,.787,1.863,2.362,2.362,0,0,0,1.736.686,2.892,2.892,0,0,0,2.391-1.187l1.151,1.1a3.845,3.845,0,0,1-1.525,1.323A4.774,4.774,0,0,1-15.952,20.176Zm-.255-8.147a1.8,1.8,0,0,0-1.419.615,3.189,3.189,0,0,0-.69,1.714h4.069V14.2a2.6,2.6,0,0,0-.571-1.622A1.785,1.785,0,0,0-16.207,12.028ZM-5.15,17.416a.968.968,0,0,0-.47-.87,5,5,0,0,0-1.56-.527A8.02,8.02,0,0,1-9,15.438,2.428,2.428,0,0,1-10.6,13.2a2.531,2.531,0,0,1,1.037-2.057,4.1,4.1,0,0,1,2.637-.826,4.266,4.266,0,0,1,2.755.844,2.677,2.677,0,0,1,1.05,2.188H-5.256a1.316,1.316,0,0,0-.457-1.024,1.752,1.752,0,0,0-1.213-.409,1.893,1.893,0,0,0-1.147.325,1.025,1.025,0,0,0-.444.87.866.866,0,0,0,.413.765,5.68,5.68,0,0,0,1.67.549,7.9,7.9,0,0,1,1.973.659A2.794,2.794,0,0,1-3.4,16a2.342,2.342,0,0,1,.347,1.3A2.478,2.478,0,0,1-4.113,19.38a4.535,4.535,0,0,1-2.786.8,4.917,4.917,0,0,1-2.083-.422,3.428,3.428,0,0,1-1.424-1.16A2.746,2.746,0,0,1-10.916,17h2.074a1.5,1.5,0,0,0,.571,1.165,2.22,2.22,0,0,0,1.4.409,2.16,2.16,0,0,0,1.283-.321A.993.993,0,0,0-5.15,17.416ZM3,20.176A4.419,4.419,0,0,1-.294,18.9a4.639,4.639,0,0,1-1.261-3.406v-.264a5.706,5.706,0,0,1,.549-2.544A4.181,4.181,0,0,1,.536,10.938a4.078,4.078,0,0,1,2.215-.624,3.733,3.733,0,0,1,3,1.239,5.24,5.24,0,0,1,1.059,3.507v.861H.6a2.856,2.856,0,0,0,.787,1.863,2.362,2.362,0,0,0,1.736.686,2.892,2.892,0,0,0,2.391-1.187l1.151,1.1a3.845,3.845,0,0,1-1.525,1.323A4.774,4.774,0,0,1,3,20.176Zm-.255-8.147a1.8,1.8,0,0,0-1.419.615,3.189,3.189,0,0,0-.69,1.714H4.7V14.2a2.6,2.6,0,0,0-.571-1.622A1.785,1.785,0,0,0,2.742,12.028Zm5.326,3.129a5.607,5.607,0,0,1,.554-2.518,4.044,4.044,0,0,1,1.556-1.723,4.383,4.383,0,0,1,2.3-.6A4.154,4.154,0,0,1,15.6,11.554a4.874,4.874,0,0,1,1.3,3.287l.009.5a5.658,5.658,0,0,1-.541,2.514,4,4,0,0,1-1.547,1.714,4.415,4.415,0,0,1-2.325.606,4.125,4.125,0,0,1-3.221-1.34,5.133,5.133,0,0,1-1.208-3.573Zm2.136.185a3.832,3.832,0,0,0,.606,2.3,1.971,1.971,0,0,0,1.688.831,1.95,1.95,0,0,0,1.683-.844,4.232,4.232,0,0,0,.6-2.47,3.782,3.782,0,0,0-.62-2.285,2.089,2.089,0,0,0-3.344-.013A4.152,4.152,0,0,0,10.2,15.342Zm13.843,2.074a.968.968,0,0,0-.47-.87,5,5,0,0,0-1.56-.527,8.02,8.02,0,0,1-1.819-.58A2.428,2.428,0,0,1,18.6,13.2a2.531,2.531,0,0,1,1.037-2.057,4.1,4.1,0,0,1,2.637-.826,4.266,4.266,0,0,1,2.755.844,2.677,2.677,0,0,1,1.05,2.188H23.941a1.316,1.316,0,0,0-.457-1.024,1.752,1.752,0,0,0-1.213-.409,1.893,1.893,0,0,0-1.147.325,1.025,1.025,0,0,0-.444.87.866.866,0,0,0,.413.765,5.68,5.68,0,0,0,1.67.549,7.9,7.9,0,0,1,1.973.659A2.794,2.794,0,0,1,25.8,16a2.342,2.342,0,0,1,.347,1.3,2.478,2.478,0,0,1-1.063,2.079,4.535,4.535,0,0,1-2.786.8,4.917,4.917,0,0,1-2.083-.422,3.428,3.428,0,0,1-1.424-1.16A2.746,2.746,0,0,1,18.281,17h2.074a1.5,1.5,0,0,0,.571,1.165,2.22,2.22,0,0,0,1.4.409,2.16,2.16,0,0,0,1.283-.321A.993.993,0,0,0,24.047,17.416Zm-59.1,17.926a5.662,5.662,0,0,1-1,3.52,3.209,3.209,0,0,1-2.689,1.314,3.23,3.23,0,0,1-2.5-1.028v4.509h-2.136V30.49h1.969l.088.967a3.137,3.137,0,0,1,2.558-1.143,3.242,3.242,0,0,1,2.729,1.3,5.813,5.813,0,0,1,.989,3.6Zm-2.127-.185a3.966,3.966,0,0,0-.567-2.259,1.843,1.843,0,0,0-1.622-.835,1.965,1.965,0,0,0-1.881,1.081v4.219a1.983,1.983,0,0,0,1.9,1.107,1.841,1.841,0,0,0,1.6-.822A4.366,4.366,0,0,0-37.182,35.157Zm8.121,5.019A4.419,4.419,0,0,1-32.353,38.9a4.639,4.639,0,0,1-1.261-3.406v-.264a5.706,5.706,0,0,1,.549-2.544,4.181,4.181,0,0,1,1.542-1.745,4.078,4.078,0,0,1,2.215-.624,3.733,3.733,0,0,1,3,1.239,5.24,5.24,0,0,1,1.059,3.507v.861H-31.46a2.856,2.856,0,0,0,.787,1.863,2.362,2.362,0,0,0,1.736.686,2.892,2.892,0,0,0,2.391-1.187l1.151,1.1a3.845,3.845,0,0,1-1.525,1.323A4.774,4.774,0,0,1-29.061,40.176Zm-.255-8.147a1.8,1.8,0,0,0-1.419.615,3.189,3.189,0,0,0-.69,1.714h4.069V34.2a2.6,2.6,0,0,0-.571-1.622A1.785,1.785,0,0,0-29.316,32.028Zm10.705.413a5.285,5.285,0,0,0-.87-.07A1.959,1.959,0,0,0-21.458,33.5V40h-2.136V30.49h2.039l.053,1.063a2.406,2.406,0,0,1,2.145-1.239,2,2,0,0,1,.756.123Zm6.68,4.975a.968.968,0,0,0-.47-.87,5,5,0,0,0-1.56-.527,8.02,8.02,0,0,1-1.819-.58,2.428,2.428,0,0,1-1.6-2.241,2.531,2.531,0,0,1,1.037-2.057,4.1,4.1,0,0,1,2.637-.826,4.266,4.266,0,0,1,2.755.844A2.677,2.677,0,0,1-9.9,33.347h-2.136a1.316,1.316,0,0,0-.457-1.024,1.752,1.752,0,0,0-1.213-.409,1.893,1.893,0,0,0-1.147.325,1.025,1.025,0,0,0-.444.87.866.866,0,0,0,.413.765,5.68,5.68,0,0,0,1.67.549,7.9,7.9,0,0,1,1.973.659A2.794,2.794,0,0,1-10.178,36a2.342,2.342,0,0,1,.347,1.3,2.478,2.478,0,0,1-1.063,2.079,4.535,4.535,0,0,1-2.786.8,4.917,4.917,0,0,1-2.083-.422,3.428,3.428,0,0,1-1.424-1.16A2.746,2.746,0,0,1-17.7,37h2.074a1.5,1.5,0,0,0,.571,1.165,2.22,2.22,0,0,0,1.4.409,2.16,2.16,0,0,0,1.283-.321A.993.993,0,0,0-11.931,37.416Zm3.56-2.259a5.607,5.607,0,0,1,.554-2.518,4.044,4.044,0,0,1,1.556-1.723,4.383,4.383,0,0,1,2.3-.6A4.154,4.154,0,0,1-.835,31.554a4.874,4.874,0,0,1,1.3,3.287l.009.5A5.658,5.658,0,0,1-.07,37.855a4,4,0,0,1-1.547,1.714,4.415,4.415,0,0,1-2.325.606,4.125,4.125,0,0,1-3.221-1.34,5.133,5.133,0,0,1-1.208-3.573Zm2.136.185a3.832,3.832,0,0,0,.606,2.3,1.971,1.971,0,0,0,1.688.831,1.95,1.95,0,0,0,1.683-.844,4.232,4.232,0,0,0,.6-2.47,3.782,3.782,0,0,0-.62-2.285,1.979,1.979,0,0,0-1.683-.844,1.96,1.96,0,0,0-1.661.831A4.152,4.152,0,0,0-6.236,35.342ZM4.258,30.49l.062,1.1a3.419,3.419,0,0,1,2.769-1.274q2.971,0,3.023,3.4V40H7.976V33.839a1.958,1.958,0,0,0-.391-1.34,1.645,1.645,0,0,0-1.279-.435,2.058,2.058,0,0,0-1.925,1.169V40H2.246V30.49ZM17.969,40a3.3,3.3,0,0,1-.246-.888,3.325,3.325,0,0,1-2.5,1.063,3.355,3.355,0,0,1-2.338-.817,2.615,2.615,0,0,1-.905-2.021A2.7,2.7,0,0,1,13.113,35a5.473,5.473,0,0,1,3.23-.813h1.31v-.624a1.666,1.666,0,0,0-.413-1.182,1.638,1.638,0,0,0-1.257-.444,1.881,1.881,0,0,0-1.2.365,1.129,1.129,0,0,0-.466.927H12.186a2.37,2.37,0,0,1,.519-1.463A3.455,3.455,0,0,1,14.115,30.7a4.955,4.955,0,0,1,1.991-.387,3.99,3.99,0,0,1,2.663.839,2.993,2.993,0,0,1,1.02,2.36V37.8a4.861,4.861,0,0,0,.36,2.048V40Zm-2.347-1.538a2.429,2.429,0,0,0,1.191-.308,2.055,2.055,0,0,0,.839-.826V35.535H16.5a3.148,3.148,0,0,0-1.784.413,1.338,1.338,0,0,0-.6,1.169,1.248,1.248,0,0,0,.409.98A1.583,1.583,0,0,0,15.623,38.462ZM24.3,40H22.162V26.5H24.3Zm6.513.176A4.419,4.419,0,0,1,27.519,38.9a4.639,4.639,0,0,1-1.261-3.406v-.264a5.706,5.706,0,0,1,.549-2.544,4.181,4.181,0,0,1,1.542-1.745,4.078,4.078,0,0,1,2.215-.624,3.733,3.733,0,0,1,3,1.239,5.24,5.24,0,0,1,1.059,3.507v.861H28.411a2.856,2.856,0,0,0,.787,1.863,2.362,2.362,0,0,0,1.736.686,2.892,2.892,0,0,0,2.391-1.187l1.151,1.1a3.845,3.845,0,0,1-1.525,1.323A4.774,4.774,0,0,1,30.81,40.176Zm-.255-8.147a1.8,1.8,0,0,0-1.419.615,3.189,3.189,0,0,0-.69,1.714h4.069V34.2a2.6,2.6,0,0,0-.571-1.622A1.785,1.785,0,0,0,30.555,32.028Zm11.057,5.388a.968.968,0,0,0-.47-.87,5,5,0,0,0-1.56-.527,8.02,8.02,0,0,1-1.819-.58,2.428,2.428,0,0,1-1.6-2.241A2.531,2.531,0,0,1,37.2,31.141a4.1,4.1,0,0,1,2.637-.826,4.266,4.266,0,0,1,2.755.844,2.677,2.677,0,0,1,1.05,2.188H41.506a1.316,1.316,0,0,0-.457-1.024,1.752,1.752,0,0,0-1.213-.409,1.893,1.893,0,0,0-1.147.325,1.025,1.025,0,0,0-.444.87.866.866,0,0,0,.413.765,5.68,5.68,0,0,0,1.67.549,7.9,7.9,0,0,1,1.973.659A2.794,2.794,0,0,1,43.365,36a2.342,2.342,0,0,1,.347,1.3,2.478,2.478,0,0,1-1.063,2.079,4.535,4.535,0,0,1-2.786.8,4.917,4.917,0,0,1-2.083-.422,3.428,3.428,0,0,1-1.424-1.16A2.746,2.746,0,0,1,35.846,37H37.92a1.5,1.5,0,0,0,.571,1.165,2.22,2.22,0,0,0,1.4.409,2.16,2.16,0,0,0,1.283-.321A.993.993,0,0,0,41.612,37.416Z" transform="translate(728.406 6125.063)" fill="#fff"/>
      <path id="Trazado_101689" data-name="Trazado 101689" d="M396.414,364.316l-32.23,99.672-98.734-.228,51.011-157.53Z" transform="translate(572.072 5746.759)" fill="#ed3553"/>
      <path id="Trazado_101690" data-name="Trazado 101690" d="M309.32,305.54,258.309,463.07l-6.314-.017L219.3,363.22l84.838-61.45Z" transform="translate(579.213 5747.449)" fill="#ef4f6b"/>
      <path id="Trazado_101710" data-name="Trazado 101710" d="M-42.552-5.713h-5.256v3.938h6.144V0h-8.367V-12.8h8.306V-11h-6.082v3.533h5.256Zm5.906-.668,1.811-3.129h2.373l-2.909,4.685L-32.366,0h-2.355l-1.9-3.252L-38.509,0h-2.373l3.006-4.825-2.9-4.685h2.355ZM-22.68-4.658a5.662,5.662,0,0,1-1,3.52A3.209,3.209,0,0,1-26.372.176a3.23,3.23,0,0,1-2.5-1.028V3.656h-2.136V-9.51h1.969l.088.967A3.137,3.137,0,0,1-26.4-9.686a3.242,3.242,0,0,1,2.729,1.3,5.813,5.813,0,0,1,.989,3.6Zm-2.127-.185A3.966,3.966,0,0,0-25.374-7.1,1.843,1.843,0,0,0-27-7.937a1.965,1.965,0,0,0-1.881,1.081v4.219a1.983,1.983,0,0,0,1.9,1.107,1.841,1.841,0,0,0,1.6-.822A4.366,4.366,0,0,0-24.807-4.843ZM-16.686.176A4.419,4.419,0,0,1-19.978-1.1a4.639,4.639,0,0,1-1.261-3.406v-.264a5.706,5.706,0,0,1,.549-2.544,4.181,4.181,0,0,1,1.542-1.745,4.078,4.078,0,0,1,2.215-.624,3.733,3.733,0,0,1,3,1.239,5.24,5.24,0,0,1,1.059,3.507v.861h-6.214A2.856,2.856,0,0,0-18.3-2.215a2.362,2.362,0,0,0,1.736.686,2.892,2.892,0,0,0,2.391-1.187l1.151,1.1A3.845,3.845,0,0,1-14.546-.294,4.774,4.774,0,0,1-16.686.176Zm-.255-8.147a1.8,1.8,0,0,0-1.419.615,3.189,3.189,0,0,0-.69,1.714h4.069V-5.8a2.6,2.6,0,0,0-.571-1.622A1.785,1.785,0,0,0-16.941-7.972Zm10.705.413a5.285,5.285,0,0,0-.87-.07A1.959,1.959,0,0,0-9.083-6.5V0h-2.136V-9.51H-9.18l.053,1.063A2.406,2.406,0,0,1-6.983-9.686a2,2,0,0,1,.756.123ZM-2.615,0H-4.75V-9.51h2.136ZM-4.882-11.979A1.133,1.133,0,0,1-4.57-12.8a1.179,1.179,0,0,1,.892-.325,1.193,1.193,0,0,1,.9.325,1.125,1.125,0,0,1,.316.817,1.1,1.1,0,0,1-.316.8,1.2,1.2,0,0,1-.9.321,1.188,1.188,0,0,1-.892-.321A1.107,1.107,0,0,1-4.882-11.979ZM3.9.176A4.419,4.419,0,0,1,.606-1.1,4.639,4.639,0,0,1-.655-4.509v-.264A5.706,5.706,0,0,1-.105-7.317,4.181,4.181,0,0,1,1.437-9.062a4.078,4.078,0,0,1,2.215-.624,3.733,3.733,0,0,1,3,1.239A5.24,5.24,0,0,1,7.712-4.939v.861H1.5a2.856,2.856,0,0,0,.787,1.863,2.362,2.362,0,0,0,1.736.686A2.892,2.892,0,0,0,6.412-2.716l1.151,1.1A3.845,3.845,0,0,1,6.038-.294,4.774,4.774,0,0,1,3.9.176ZM3.643-7.972a1.8,1.8,0,0,0-1.419.615,3.189,3.189,0,0,0-.69,1.714H5.6V-5.8a2.6,2.6,0,0,0-.571-1.622A1.785,1.785,0,0,0,3.643-7.972ZM11.351-9.51l.062,1.1a3.419,3.419,0,0,1,2.769-1.274q2.971,0,3.023,3.4V0H15.069V-6.161a1.958,1.958,0,0,0-.391-1.34A1.645,1.645,0,0,0,13.4-7.937a2.058,2.058,0,0,0-1.925,1.169V0H9.338V-9.51Zm11.936,7.98A1.931,1.931,0,0,0,24.614-2a1.591,1.591,0,0,0,.563-1.151h2.013a3.137,3.137,0,0,1-.554,1.657A3.632,3.632,0,0,1,25.229-.272a4.191,4.191,0,0,1-1.916.448,4.055,4.055,0,0,1-3.164-1.292A5.124,5.124,0,0,1,18.98-4.685V-4.9A5.039,5.039,0,0,1,20.14-8.38,4.018,4.018,0,0,1,23.3-9.686a3.907,3.907,0,0,1,2.764.989,3.542,3.542,0,0,1,1.121,2.6H25.176a1.956,1.956,0,0,0-.558-1.345,1.8,1.8,0,0,0-1.332-.527,1.879,1.879,0,0,0-1.6.751,3.834,3.834,0,0,0-.571,2.281V-4.6a3.9,3.9,0,0,0,.558,2.307A1.878,1.878,0,0,0,23.287-1.529ZM31.074,0H28.938V-9.51h2.136ZM28.806-11.979a1.133,1.133,0,0,1,.312-.817,1.179,1.179,0,0,1,.892-.325,1.193,1.193,0,0,1,.9.325,1.125,1.125,0,0,1,.316.817,1.1,1.1,0,0,1-.316.8,1.2,1.2,0,0,1-.9.321,1.188,1.188,0,0,1-.892-.321A1.107,1.107,0,0,1,28.806-11.979ZM39.081,0a3.3,3.3,0,0,1-.246-.888,3.325,3.325,0,0,1-2.5,1.063A3.355,3.355,0,0,1,34-.642,2.615,2.615,0,0,1,33.1-2.663,2.7,2.7,0,0,1,34.225-5a5.473,5.473,0,0,1,3.23-.813h1.31v-.624a1.666,1.666,0,0,0-.413-1.182,1.638,1.638,0,0,0-1.257-.444,1.881,1.881,0,0,0-1.2.365,1.129,1.129,0,0,0-.466.927H33.3a2.37,2.37,0,0,1,.519-1.463A3.455,3.455,0,0,1,35.227-9.3a4.955,4.955,0,0,1,1.991-.387,3.99,3.99,0,0,1,2.663.839,2.993,2.993,0,0,1,1.02,2.36V-2.2a4.861,4.861,0,0,0,.36,2.048V0ZM36.734-1.538a2.429,2.429,0,0,0,1.191-.308,2.055,2.055,0,0,0,.839-.826V-4.465H37.613a3.148,3.148,0,0,0-1.784.413,1.338,1.338,0,0,0-.6,1.169,1.248,1.248,0,0,0,.409.98A1.583,1.583,0,0,0,36.734-1.538ZM48.467-2.584a.968.968,0,0,0-.47-.87,5,5,0,0,0-1.56-.527,8.02,8.02,0,0,1-1.819-.58,2.428,2.428,0,0,1-1.6-2.241,2.531,2.531,0,0,1,1.037-2.057,4.1,4.1,0,0,1,2.637-.826,4.266,4.266,0,0,1,2.755.844A2.677,2.677,0,0,1,50.5-6.653H48.362A1.316,1.316,0,0,0,47.9-7.677a1.752,1.752,0,0,0-1.213-.409,1.893,1.893,0,0,0-1.147.325,1.025,1.025,0,0,0-.444.87.866.866,0,0,0,.413.765,5.68,5.68,0,0,0,1.67.549,7.9,7.9,0,0,1,1.973.659A2.794,2.794,0,0,1,50.221-4a2.342,2.342,0,0,1,.347,1.3A2.478,2.478,0,0,1,49.5-.62a4.535,4.535,0,0,1-2.786.8,4.917,4.917,0,0,1-2.083-.422,3.428,3.428,0,0,1-1.424-1.16A2.746,2.746,0,0,1,42.7-3h2.074a1.5,1.5,0,0,0,.571,1.165,2.22,2.22,0,0,0,1.4.409,2.16,2.16,0,0,0,1.283-.321A.993.993,0,0,0,48.467-2.584Zm-81.751,19.6h-4.957L-39.278,20H-41.59l4.834-12.8h2L-29.918,20h-2.32Zm-4.333-1.793h3.709l-1.854-5.309Zm10.5-4.737.062,1.1a3.419,3.419,0,0,1,2.769-1.274q2.971,0,3.023,3.4V20H-23.4V13.839a1.958,1.958,0,0,0-.391-1.34,1.645,1.645,0,0,0-1.279-.435,2.058,2.058,0,0,0-1.925,1.169V20h-2.136V10.49Zm10.705-2.312V10.49h1.679v1.582h-1.679v5.309a1.169,1.169,0,0,0,.215.787,1,1,0,0,0,.769.242,3.29,3.29,0,0,0,.747-.088v1.652a5.26,5.26,0,0,1-1.406.2q-2.461,0-2.461-2.716V12.072h-1.564V10.49h1.564V8.179Zm7.5,12A4.419,4.419,0,0,1-12.2,18.9a4.639,4.639,0,0,1-1.261-3.406v-.264a5.706,5.706,0,0,1,.549-2.544,4.181,4.181,0,0,1,1.542-1.745,4.078,4.078,0,0,1,2.215-.624,3.733,3.733,0,0,1,3,1.239A5.24,5.24,0,0,1-5.1,15.061v.861h-6.214a2.856,2.856,0,0,0,.787,1.863,2.362,2.362,0,0,0,1.736.686A2.892,2.892,0,0,0-6.4,17.284l1.151,1.1a3.845,3.845,0,0,1-1.525,1.323A4.774,4.774,0,0,1-8.912,20.176Zm-.255-8.147a1.8,1.8,0,0,0-1.419.615,3.189,3.189,0,0,0-.69,1.714h4.069V14.2a2.6,2.6,0,0,0-.571-1.622A1.785,1.785,0,0,0-9.167,12.028Zm10.705.413a5.285,5.285,0,0,0-.87-.07A1.959,1.959,0,0,0-1.31,13.5V20H-3.445V10.49h2.039l.053,1.063A2.406,2.406,0,0,1,.791,10.314a2,2,0,0,1,.756.123ZM5.159,20H3.023V10.49H5.159ZM2.892,8.021A1.133,1.133,0,0,1,3.2,7.2,1.179,1.179,0,0,1,4.1,6.878a1.193,1.193,0,0,1,.9.325,1.125,1.125,0,0,1,.316.817,1.1,1.1,0,0,1-.316.8,1.2,1.2,0,0,1-.9.321A1.188,1.188,0,0,1,3.2,8.825,1.107,1.107,0,0,1,2.892,8.021Zm4.192,7.137a5.607,5.607,0,0,1,.554-2.518,4.044,4.044,0,0,1,1.556-1.723,4.383,4.383,0,0,1,2.3-.6,4.154,4.154,0,0,1,3.125,1.239,4.874,4.874,0,0,1,1.3,3.287l.009.5a5.658,5.658,0,0,1-.541,2.514,4,4,0,0,1-1.547,1.714,4.415,4.415,0,0,1-2.325.606,4.125,4.125,0,0,1-3.221-1.34,5.133,5.133,0,0,1-1.208-3.573Zm2.136.185a3.832,3.832,0,0,0,.606,2.3,1.971,1.971,0,0,0,1.688.831,1.95,1.95,0,0,0,1.683-.844,4.232,4.232,0,0,0,.6-2.47,3.782,3.782,0,0,0-.62-2.285,1.979,1.979,0,0,0-1.683-.844,1.96,1.96,0,0,0-1.661.831A4.152,4.152,0,0,0,9.22,15.342Zm13.491-2.9a5.285,5.285,0,0,0-.87-.07A1.959,1.959,0,0,0,19.863,13.5V20H17.728V10.49h2.039l.053,1.063a2.406,2.406,0,0,1,2.145-1.239,2,2,0,0,1,.756.123Zm5.37,7.734A4.419,4.419,0,0,1,24.79,18.9a4.639,4.639,0,0,1-1.261-3.406v-.264a5.706,5.706,0,0,1,.549-2.544,4.181,4.181,0,0,1,1.542-1.745,4.078,4.078,0,0,1,2.215-.624,3.733,3.733,0,0,1,3,1.239A5.24,5.24,0,0,1,31.9,15.061v.861H25.682a2.856,2.856,0,0,0,.787,1.863,2.362,2.362,0,0,0,1.736.686,2.892,2.892,0,0,0,2.391-1.187l1.151,1.1a3.845,3.845,0,0,1-1.525,1.323A4.774,4.774,0,0,1,28.081,20.176Zm-.255-8.147a1.8,1.8,0,0,0-1.419.615,3.189,3.189,0,0,0-.69,1.714h4.069V14.2a2.6,2.6,0,0,0-.571-1.622A1.785,1.785,0,0,0,27.826,12.028Zm11.057,5.388a.968.968,0,0,0-.47-.87,5,5,0,0,0-1.56-.527,8.02,8.02,0,0,1-1.819-.58,2.428,2.428,0,0,1-1.6-2.241,2.531,2.531,0,0,1,1.037-2.057,4.1,4.1,0,0,1,2.637-.826,4.266,4.266,0,0,1,2.755.844,2.677,2.677,0,0,1,1.05,2.188H38.777a1.316,1.316,0,0,0-.457-1.024,1.752,1.752,0,0,0-1.213-.409,1.893,1.893,0,0,0-1.147.325,1.025,1.025,0,0,0-.444.87.866.866,0,0,0,.413.765,5.68,5.68,0,0,0,1.67.549,7.9,7.9,0,0,1,1.973.659A2.794,2.794,0,0,1,40.636,16a2.342,2.342,0,0,1,.347,1.3A2.478,2.478,0,0,1,39.92,19.38a4.535,4.535,0,0,1-2.786.8,4.917,4.917,0,0,1-2.083-.422,3.428,3.428,0,0,1-1.424-1.16A2.746,2.746,0,0,1,33.117,17h2.074a1.5,1.5,0,0,0,.571,1.165,2.22,2.22,0,0,0,1.4.409,2.16,2.16,0,0,0,1.283-.321A.993.993,0,0,0,38.883,17.416Z" transform="translate(882.406 6125.063)" fill="#fff"/>
      <path id="Trazado_101691" data-name="Trazado 101691" d="M396.414,364.316l-32.23,99.672-98.734-.228,51.011-157.53Z" transform="translate(720.072 5746.759)" fill="#18b493"/>
      <path id="Trazado_101692" data-name="Trazado 101692" d="M309.32,305.54,258.309,463.07l-6.314-.017L219.3,363.22l84.838-61.45Z" transform="translate(727.213 5747.449)" fill="#35bea1"/>
      <path id="Trazado_101711" data-name="Trazado 101711" d="M-45.215,0H-47.43V-12.8h2.215Zm4.509-9.51.062,1.1a3.419,3.419,0,0,1,2.769-1.274q2.971,0,3.023,3.4V0h-2.136V-6.161A1.958,1.958,0,0,0-37.38-7.5a1.645,1.645,0,0,0-1.279-.435,2.058,2.058,0,0,0-1.925,1.169V0h-2.136V-9.51ZM-31.926,0V-7.928h-1.45V-9.51h1.45v-.87a3.266,3.266,0,0,1,.879-2.443,3.367,3.367,0,0,1,2.461-.861,4.936,4.936,0,0,1,1.2.158l-.053,1.67a4.207,4.207,0,0,0-.817-.07,1.371,1.371,0,0,0-1.529,1.573v.844h1.934v1.582h-1.934V0ZM-26.7-4.843a5.607,5.607,0,0,1,.554-2.518,4.044,4.044,0,0,1,1.556-1.723,4.383,4.383,0,0,1,2.3-.6A4.154,4.154,0,0,1-19.16-8.446a4.874,4.874,0,0,1,1.3,3.287l.009.5A5.658,5.658,0,0,1-18.4-2.145,4,4,0,0,1-19.942-.431a4.415,4.415,0,0,1-2.325.606,4.125,4.125,0,0,1-3.221-1.34A5.133,5.133,0,0,1-26.7-4.737Zm2.136.185a3.832,3.832,0,0,0,.606,2.3,1.971,1.971,0,0,0,1.688.831,1.95,1.95,0,0,0,1.683-.844,4.232,4.232,0,0,0,.6-2.47,3.782,3.782,0,0,0-.62-2.285,1.979,1.979,0,0,0-1.683-.844,1.96,1.96,0,0,0-1.661.831A4.152,4.152,0,0,0-24.561-4.658Zm13.491-2.9a5.285,5.285,0,0,0-.87-.07A1.959,1.959,0,0,0-13.917-6.5V0h-2.136V-9.51h2.039l.053,1.063a2.406,2.406,0,0,1,2.145-1.239,2,2,0,0,1,.756.123ZM-7.712-9.51l.062.993A3.422,3.422,0,0,1-4.909-9.686,2.629,2.629,0,0,1-2.3-8.227,3.373,3.373,0,0,1,.62-9.686a2.965,2.965,0,0,1,2.342.87,3.831,3.831,0,0,1,.787,2.566V0H1.613V-6.187a1.891,1.891,0,0,0-.4-1.327,1.731,1.731,0,0,0-1.31-.422,1.778,1.778,0,0,0-1.191.391,2.063,2.063,0,0,0-.646,1.024L-1.92,0H-4.056V-6.258A1.523,1.523,0,0,0-5.77-7.937,1.88,1.88,0,0,0-7.589-6.891V0H-9.725V-9.51ZM11.624,0a3.3,3.3,0,0,1-.246-.888A3.325,3.325,0,0,1,8.881.176,3.355,3.355,0,0,1,6.543-.642a2.615,2.615,0,0,1-.905-2.021A2.7,2.7,0,0,1,6.768-5,5.473,5.473,0,0,1,10-5.81h1.31v-.624a1.666,1.666,0,0,0-.413-1.182A1.638,1.638,0,0,0,9.637-8.06a1.881,1.881,0,0,0-1.2.365,1.129,1.129,0,0,0-.466.927H5.84a2.37,2.37,0,0,1,.519-1.463A3.455,3.455,0,0,1,7.77-9.3,4.955,4.955,0,0,1,9.76-9.686a3.99,3.99,0,0,1,2.663.839,2.993,2.993,0,0,1,1.02,2.36V-2.2A4.861,4.861,0,0,0,13.8-.149V0ZM9.277-1.538a2.429,2.429,0,0,0,1.191-.308,2.055,2.055,0,0,0,.839-.826V-4.465H10.156a3.148,3.148,0,0,0-1.784.413,1.338,1.338,0,0,0-.6,1.169,1.248,1.248,0,0,0,.409.98A1.583,1.583,0,0,0,9.277-1.538Zm10.31.009A1.931,1.931,0,0,0,20.914-2a1.591,1.591,0,0,0,.563-1.151h2.013a3.137,3.137,0,0,1-.554,1.657A3.632,3.632,0,0,1,21.529-.272a4.191,4.191,0,0,1-1.916.448,4.055,4.055,0,0,1-3.164-1.292A5.124,5.124,0,0,1,15.28-4.685V-4.9A5.039,5.039,0,0,1,16.44-8.38,4.018,4.018,0,0,1,19.6-9.686a3.907,3.907,0,0,1,2.764.989,3.542,3.542,0,0,1,1.121,2.6H21.476a1.956,1.956,0,0,0-.558-1.345,1.8,1.8,0,0,0-1.332-.527,1.879,1.879,0,0,0-1.6.751,3.834,3.834,0,0,0-.571,2.281V-4.6a3.9,3.9,0,0,0,.558,2.307A1.878,1.878,0,0,0,19.586-1.529ZM27.374,0H25.238V-9.51h2.136ZM25.106-11.979a1.133,1.133,0,0,1,.312-.817,1.179,1.179,0,0,1,.892-.325,1.193,1.193,0,0,1,.9.325,1.125,1.125,0,0,1,.316.817,1.1,1.1,0,0,1-.316.8,1.2,1.2,0,0,1-.9.321,1.188,1.188,0,0,1-.892-.321A1.107,1.107,0,0,1,25.106-11.979ZM29.3-4.843a5.607,5.607,0,0,1,.554-2.518,4.044,4.044,0,0,1,1.556-1.723,4.383,4.383,0,0,1,2.3-.6,4.154,4.154,0,0,1,3.125,1.239,4.874,4.874,0,0,1,1.3,3.287l.009.5A5.658,5.658,0,0,1,37.6-2.145,4,4,0,0,1,36.053-.431a4.415,4.415,0,0,1-2.325.606,4.125,4.125,0,0,1-3.221-1.34A5.133,5.133,0,0,1,29.3-4.737Zm2.136.185a3.832,3.832,0,0,0,.606,2.3,1.971,1.971,0,0,0,1.688.831,1.95,1.95,0,0,0,1.683-.844,4.232,4.232,0,0,0,.6-2.47,3.782,3.782,0,0,0-.62-2.285,1.979,1.979,0,0,0-1.683-.844,1.96,1.96,0,0,0-1.661.831A4.152,4.152,0,0,0,31.434-4.658ZM34.3-13.5h2.435L34.3-10.837H32.585Zm7.629,3.99.062,1.1a3.419,3.419,0,0,1,2.769-1.274q2.971,0,3.023,3.4V0H45.646V-6.161a1.958,1.958,0,0,0-.391-1.34,1.645,1.645,0,0,0-1.279-.435,2.058,2.058,0,0,0-1.925,1.169V0H39.916V-9.51Zm-86.8,24.685a5.654,5.654,0,0,1,1.02-3.529,3.267,3.267,0,0,1,2.733-1.332,3.1,3.1,0,0,1,2.443,1.055V6.5h2.136V20h-1.934l-.105-.984a3.148,3.148,0,0,1-2.558,1.16,3.248,3.248,0,0,1-2.7-1.345A5.861,5.861,0,0,1-44.873,15.175Zm2.136.185a3.958,3.958,0,0,0,.558,2.263,1.811,1.811,0,0,0,1.586.813,2.017,2.017,0,0,0,1.916-1.169V13.206a1.986,1.986,0,0,0-1.9-1.143,1.824,1.824,0,0,0-1.6.822A4.408,4.408,0,0,0-42.737,15.359Zm12.612,4.816A4.419,4.419,0,0,1-33.416,18.9a4.639,4.639,0,0,1-1.261-3.406v-.264a5.706,5.706,0,0,1,.549-2.544,4.181,4.181,0,0,1,1.542-1.745,4.078,4.078,0,0,1,2.215-.624,3.733,3.733,0,0,1,3,1.239,5.24,5.24,0,0,1,1.059,3.507v.861h-6.214a2.856,2.856,0,0,0,.787,1.863A2.362,2.362,0,0,0-30,18.471a2.892,2.892,0,0,0,2.391-1.187l1.151,1.1a3.845,3.845,0,0,1-1.525,1.323A4.774,4.774,0,0,1-30.125,20.176Zm-.255-8.147a1.8,1.8,0,0,0-1.419.615,3.189,3.189,0,0,0-.69,1.714h4.069V14.2a2.6,2.6,0,0,0-.571-1.622A1.785,1.785,0,0,0-30.379,12.028Zm8,7.972h-2.136V6.5h2.136Zm9.079,0h-2.136V10.49H-13.3ZM-15.57,8.021a1.133,1.133,0,0,1,.312-.817,1.179,1.179,0,0,1,.892-.325,1.193,1.193,0,0,1,.9.325,1.125,1.125,0,0,1,.316.817,1.1,1.1,0,0,1-.316.8,1.2,1.2,0,0,1-.9.321,1.188,1.188,0,0,1-.892-.321A1.107,1.107,0,0,1-15.57,8.021ZM-9,10.49l.062,1.1a3.419,3.419,0,0,1,2.769-1.274q2.971,0,3.023,3.4V20H-5.278V13.839a1.958,1.958,0,0,0-.391-1.34,1.645,1.645,0,0,0-1.279-.435,2.058,2.058,0,0,0-1.925,1.169V20h-2.136V10.49ZM1.709,8.179V10.49H3.388v1.582H1.709v5.309a1.169,1.169,0,0,0,.215.787,1,1,0,0,0,.769.242,3.29,3.29,0,0,0,.747-.088v1.652a5.26,5.26,0,0,1-1.406.2q-2.461,0-2.461-2.716V12.072H-1.991V10.49H-.426V8.179Zm7.5,12A4.419,4.419,0,0,1,5.915,18.9a4.639,4.639,0,0,1-1.261-3.406v-.264A5.706,5.706,0,0,1,5.2,12.683a4.181,4.181,0,0,1,1.542-1.745,4.078,4.078,0,0,1,2.215-.624,3.733,3.733,0,0,1,3,1.239,5.24,5.24,0,0,1,1.059,3.507v.861H6.807a2.856,2.856,0,0,0,.787,1.863,2.362,2.362,0,0,0,1.736.686,2.892,2.892,0,0,0,2.391-1.187l1.151,1.1a3.845,3.845,0,0,1-1.525,1.323A4.774,4.774,0,0,1,9.207,20.176Zm-.255-8.147a1.8,1.8,0,0,0-1.419.615,3.189,3.189,0,0,0-.69,1.714h4.069V14.2a2.6,2.6,0,0,0-.571-1.622A1.785,1.785,0,0,0,8.952,12.028Zm10.705.413a5.285,5.285,0,0,0-.87-.07A1.959,1.959,0,0,0,16.809,13.5V20H14.673V10.49h2.039l.053,1.063a2.406,2.406,0,0,1,2.145-1.239,2,2,0,0,1,.756.123Zm3.331-1.951.062,1.1a3.419,3.419,0,0,1,2.769-1.274q2.971,0,3.023,3.4V20H26.706V13.839a1.958,1.958,0,0,0-.391-1.34,1.645,1.645,0,0,0-1.279-.435,2.058,2.058,0,0,0-1.925,1.169V20H20.975V10.49ZM35.2,20.176A4.419,4.419,0,0,1,31.913,18.9a4.639,4.639,0,0,1-1.261-3.406v-.264a5.706,5.706,0,0,1,.549-2.544,4.181,4.181,0,0,1,1.542-1.745,4.078,4.078,0,0,1,2.215-.624,3.733,3.733,0,0,1,3,1.239,5.24,5.24,0,0,1,1.059,3.507v.861H32.805a2.856,2.856,0,0,0,.787,1.863,2.362,2.362,0,0,0,1.736.686,2.892,2.892,0,0,0,2.391-1.187l1.151,1.1a3.845,3.845,0,0,1-1.525,1.323A4.774,4.774,0,0,1,35.2,20.176Zm-.255-8.147a1.8,1.8,0,0,0-1.419.615,3.189,3.189,0,0,0-.69,1.714H36.91V14.2a2.6,2.6,0,0,0-.571-1.622A1.785,1.785,0,0,0,34.95,12.028Zm8.4-3.85V10.49h1.679v1.582H43.352v5.309a1.169,1.169,0,0,0,.215.787,1,1,0,0,0,.769.242,3.29,3.29,0,0,0,.747-.088v1.652a5.26,5.26,0,0,1-1.406.2q-2.461,0-2.461-2.716V12.072H39.652V10.49h1.564V8.179Z" transform="translate(1030.406 6125.063)" fill="#fff"/>
      <path id="Trazado_101693" data-name="Trazado 101693" d="M396.414,364.316l-32.23,99.672-98.734-.228,51.011-157.53Z" transform="translate(864.072 5746.759)" fill="#7239de"/>
      <path id="Trazado_101694" data-name="Trazado 101694" d="M309.32,305.54,258.309,463.07l-6.314-.017L219.3,363.22l84.838-61.45Z" transform="translate(871.213 5747.449)" fill="#8b62d8"/>
      <path id="Trazado_101712" data-name="Trazado 101712" d="M-38.782-2.979h-4.957L-44.776,0h-2.312l4.834-12.8h2L-35.416,0h-2.32Zm-4.333-1.793h3.709l-1.854-5.309Zm12.85,3.243A1.931,1.931,0,0,0-28.938-2a1.591,1.591,0,0,0,.563-1.151h2.013a3.137,3.137,0,0,1-.554,1.657A3.632,3.632,0,0,1-28.323-.272a4.191,4.191,0,0,1-1.916.448A4.055,4.055,0,0,1-33.4-1.116a5.124,5.124,0,0,1-1.169-3.568V-4.9a5.039,5.039,0,0,1,1.16-3.476,4.018,4.018,0,0,1,3.164-1.305,3.907,3.907,0,0,1,2.764.989,3.542,3.542,0,0,1,1.121,2.6h-2.013a1.956,1.956,0,0,0-.558-1.345,1.8,1.8,0,0,0-1.332-.527,1.879,1.879,0,0,0-1.6.751,3.834,3.834,0,0,0-.571,2.281V-4.6a3.9,3.9,0,0,0,.558,2.307A1.878,1.878,0,0,0-30.265-1.529Zm8.191-10.292V-9.51H-20.4v1.582h-1.679v5.309a1.169,1.169,0,0,0,.215.787,1,1,0,0,0,.769.242,3.29,3.29,0,0,0,.747-.088V-.026a5.26,5.26,0,0,1-1.406.2q-2.461,0-2.461-2.716V-7.928h-1.564V-9.51h1.564v-2.312ZM-16.493,0h-2.136V-9.51h2.136ZM-18.76-11.979a1.133,1.133,0,0,1,.312-.817,1.179,1.179,0,0,1,.892-.325,1.193,1.193,0,0,1,.9.325,1.125,1.125,0,0,1,.316.817,1.1,1.1,0,0,1-.316.8,1.2,1.2,0,0,1-.9.321,1.188,1.188,0,0,1-.892-.321A1.107,1.107,0,0,1-18.76-11.979Zm7.945,9.272L-8.8-9.51H-6.6L-9.892,0h-1.854l-3.322-9.51h2.215ZM-2.993,0H-5.128V-9.51h2.136ZM-5.26-11.979a1.133,1.133,0,0,1,.312-.817,1.179,1.179,0,0,1,.892-.325,1.193,1.193,0,0,1,.9.325,1.125,1.125,0,0,1,.316.817,1.1,1.1,0,0,1-.316.8,1.2,1.2,0,0,1-.9.321,1.188,1.188,0,0,1-.892-.321A1.107,1.107,0,0,1-5.26-11.979Zm4.192,7.154A5.654,5.654,0,0,1-.048-8.354,3.267,3.267,0,0,1,2.685-9.686,3.1,3.1,0,0,1,5.128-8.631V-13.5H7.264V0H5.331L5.225-.984A3.148,3.148,0,0,1,2.667.176a3.248,3.248,0,0,1-2.7-1.345A5.861,5.861,0,0,1-1.068-4.825Zm2.136.185a3.958,3.958,0,0,0,.558,2.263,1.811,1.811,0,0,0,1.586.813A2.017,2.017,0,0,0,5.128-2.733V-6.794a1.986,1.986,0,0,0-1.9-1.143,1.824,1.824,0,0,0-1.6.822A4.408,4.408,0,0,0,1.068-4.641ZM15.174,0a3.3,3.3,0,0,1-.246-.888,3.325,3.325,0,0,1-2.5,1.063,3.355,3.355,0,0,1-2.338-.817,2.615,2.615,0,0,1-.905-2.021A2.7,2.7,0,0,1,10.318-5a5.473,5.473,0,0,1,3.23-.813h1.31v-.624a1.666,1.666,0,0,0-.413-1.182,1.638,1.638,0,0,0-1.257-.444,1.881,1.881,0,0,0-1.2.365,1.129,1.129,0,0,0-.466.927H9.391A2.37,2.37,0,0,1,9.91-8.231,3.455,3.455,0,0,1,11.32-9.3a4.955,4.955,0,0,1,1.991-.387,3.99,3.99,0,0,1,2.663.839,2.993,2.993,0,0,1,1.02,2.36V-2.2a4.861,4.861,0,0,0,.36,2.048V0ZM12.828-1.538a2.429,2.429,0,0,0,1.191-.308,2.055,2.055,0,0,0,.839-.826V-4.465H13.707a3.148,3.148,0,0,0-1.784.413,1.338,1.338,0,0,0-.6,1.169,1.248,1.248,0,0,0,.409.98A1.583,1.583,0,0,0,12.828-1.538Zm6-3.287a5.654,5.654,0,0,1,1.02-3.529,3.267,3.267,0,0,1,2.733-1.332,3.1,3.1,0,0,1,2.443,1.055V-13.5h2.136V0H25.229l-.105-.984A3.148,3.148,0,0,1,22.566.176a3.248,3.248,0,0,1-2.7-1.345A5.861,5.861,0,0,1,18.831-4.825Zm2.136.185a3.958,3.958,0,0,0,.558,2.263,1.811,1.811,0,0,0,1.586.813,2.017,2.017,0,0,0,1.916-1.169V-6.794a1.986,1.986,0,0,0-1.9-1.143,1.824,1.824,0,0,0-1.6.822A4.408,4.408,0,0,0,20.966-4.641ZM33.579.176A4.419,4.419,0,0,1,30.287-1.1a4.639,4.639,0,0,1-1.261-3.406v-.264a5.706,5.706,0,0,1,.549-2.544,4.181,4.181,0,0,1,1.542-1.745,4.078,4.078,0,0,1,2.215-.624,3.733,3.733,0,0,1,3,1.239,5.24,5.24,0,0,1,1.059,3.507v.861H31.179a2.856,2.856,0,0,0,.787,1.863,2.362,2.362,0,0,0,1.736.686,2.892,2.892,0,0,0,2.391-1.187l1.151,1.1A3.845,3.845,0,0,1,35.719-.294,4.774,4.774,0,0,1,33.579.176Zm-.255-8.147a1.8,1.8,0,0,0-1.419.615,3.189,3.189,0,0,0-.69,1.714h4.069V-5.8a2.6,2.6,0,0,0-.571-1.622A1.785,1.785,0,0,0,33.324-7.972ZM44.38-2.584a.968.968,0,0,0-.47-.87,5,5,0,0,0-1.56-.527,8.02,8.02,0,0,1-1.819-.58,2.428,2.428,0,0,1-1.6-2.241,2.531,2.531,0,0,1,1.037-2.057A4.1,4.1,0,0,1,42.6-9.686a4.266,4.266,0,0,1,2.755.844,2.677,2.677,0,0,1,1.05,2.188H44.275a1.316,1.316,0,0,0-.457-1.024A1.752,1.752,0,0,0,42.6-8.086a1.893,1.893,0,0,0-1.147.325,1.025,1.025,0,0,0-.444.87.866.866,0,0,0,.413.765,5.68,5.68,0,0,0,1.67.549,7.9,7.9,0,0,1,1.973.659A2.794,2.794,0,0,1,46.134-4a2.342,2.342,0,0,1,.347,1.3A2.478,2.478,0,0,1,45.417-.62a4.535,4.535,0,0,1-2.786.8,4.917,4.917,0,0,1-2.083-.422,3.428,3.428,0,0,1-1.424-1.16A2.746,2.746,0,0,1,38.615-3h2.074a1.5,1.5,0,0,0,.571,1.165,2.22,2.22,0,0,0,1.4.409,2.16,2.16,0,0,0,1.283-.321A.993.993,0,0,0,44.38-2.584ZM-54.457,15.175a5.654,5.654,0,0,1,1.02-3.529A3.267,3.267,0,0,1-50.7,10.314a3.1,3.1,0,0,1,2.443,1.055V6.5h2.136V20h-1.934l-.105-.984a3.148,3.148,0,0,1-2.558,1.16,3.248,3.248,0,0,1-2.7-1.345A5.861,5.861,0,0,1-54.457,15.175Zm2.136.185a3.958,3.958,0,0,0,.558,2.263,1.811,1.811,0,0,0,1.586.813,2.017,2.017,0,0,0,1.916-1.169V13.206a1.986,1.986,0,0,0-1.9-1.143,1.824,1.824,0,0,0-1.6.822A4.408,4.408,0,0,0-52.321,15.359Zm12.612,4.816A4.419,4.419,0,0,1-43,18.9a4.639,4.639,0,0,1-1.261-3.406v-.264a5.706,5.706,0,0,1,.549-2.544,4.181,4.181,0,0,1,1.542-1.745,4.078,4.078,0,0,1,2.215-.624,3.733,3.733,0,0,1,3,1.239,5.24,5.24,0,0,1,1.059,3.507v.861h-6.214a2.856,2.856,0,0,0,.787,1.863,2.362,2.362,0,0,0,1.736.686A2.892,2.892,0,0,0-37.2,17.284l1.151,1.1a3.845,3.845,0,0,1-1.525,1.323A4.774,4.774,0,0,1-39.709,20.176Zm-.255-8.147a1.8,1.8,0,0,0-1.419.615,3.189,3.189,0,0,0-.69,1.714H-38V14.2a2.6,2.6,0,0,0-.571-1.622A1.785,1.785,0,0,0-39.964,12.028Zm8,7.972H-34.1V6.5h2.136Zm8.815-9.51.062.993a3.422,3.422,0,0,1,2.742-1.169,2.629,2.629,0,0,1,2.61,1.459,3.373,3.373,0,0,1,2.918-1.459,2.965,2.965,0,0,1,2.342.87,3.831,3.831,0,0,1,.787,2.566V20h-2.136V13.813a1.891,1.891,0,0,0-.4-1.327,1.731,1.731,0,0,0-1.31-.422,1.778,1.778,0,0,0-1.191.391,2.063,2.063,0,0,0-.646,1.024L-17.358,20h-2.136V13.742a1.523,1.523,0,0,0-1.714-1.679,1.88,1.88,0,0,0-1.819,1.046V20h-2.136V10.49ZM-3.814,20a3.3,3.3,0,0,1-.246-.888,3.325,3.325,0,0,1-2.5,1.063,3.355,3.355,0,0,1-2.338-.817A2.615,2.615,0,0,1-9.8,17.337,2.7,2.7,0,0,1-8.67,15a5.473,5.473,0,0,1,3.23-.813h1.31v-.624a1.666,1.666,0,0,0-.413-1.182A1.638,1.638,0,0,0-5.8,11.94a1.881,1.881,0,0,0-1.2.365,1.129,1.129,0,0,0-.466.927H-9.6a2.37,2.37,0,0,1,.519-1.463A3.455,3.455,0,0,1-7.668,10.7a4.955,4.955,0,0,1,1.991-.387,3.99,3.99,0,0,1,2.663.839A2.993,2.993,0,0,1-2,13.514V17.8a4.861,4.861,0,0,0,.36,2.048V20Zm-2.347-1.538a2.429,2.429,0,0,0,1.191-.308,2.055,2.055,0,0,0,.839-.826V15.535H-5.282a3.148,3.148,0,0,0-1.784.413,1.338,1.338,0,0,0-.6,1.169,1.248,1.248,0,0,0,.409.98A1.583,1.583,0,0,0-6.161,18.462ZM5.221,12.441a5.285,5.285,0,0,0-.87-.07A1.959,1.959,0,0,0,2.373,13.5V20H.237V10.49H2.276l.053,1.063a2.406,2.406,0,0,1,2.145-1.239,2,2,0,0,1,.756.123Zm4.438,3.48L8.71,16.9V20H6.574V6.5H8.71v7.787l.668-.835,2.628-2.962h2.566l-3.533,3.964L14.95,20H12.48Zm10.318,4.254A4.419,4.419,0,0,1,16.686,18.9a4.639,4.639,0,0,1-1.261-3.406v-.264a5.706,5.706,0,0,1,.549-2.544,4.181,4.181,0,0,1,1.542-1.745,4.078,4.078,0,0,1,2.215-.624,3.733,3.733,0,0,1,3,1.239,5.24,5.24,0,0,1,1.059,3.507v.861H17.578a2.856,2.856,0,0,0,.787,1.863,2.362,2.362,0,0,0,1.736.686,2.892,2.892,0,0,0,2.391-1.187l1.151,1.1a3.845,3.845,0,0,1-1.525,1.323A4.774,4.774,0,0,1,19.978,20.176Zm-.255-8.147a1.8,1.8,0,0,0-1.419.615,3.189,3.189,0,0,0-.69,1.714h4.069V14.2a2.6,2.6,0,0,0-.571-1.622A1.785,1.785,0,0,0,19.723,12.028Zm8.4-3.85V10.49H29.8v1.582H28.125v5.309a1.169,1.169,0,0,0,.215.787,1,1,0,0,0,.769.242,3.29,3.29,0,0,0,.747-.088v1.652a5.26,5.26,0,0,1-1.406.2q-2.461,0-2.461-2.716V12.072H24.425V10.49h1.564V8.179ZM33.706,20H31.57V10.49h2.136ZM31.438,8.021A1.133,1.133,0,0,1,31.75,7.2a1.179,1.179,0,0,1,.892-.325,1.193,1.193,0,0,1,.9.325,1.125,1.125,0,0,1,.316.817,1.1,1.1,0,0,1-.316.8,1.2,1.2,0,0,1-.9.321,1.188,1.188,0,0,1-.892-.321A1.107,1.107,0,0,1,31.438,8.021Zm6.574,2.47.062,1.1a3.419,3.419,0,0,1,2.769-1.274q2.971,0,3.023,3.4V20H41.73V13.839a1.958,1.958,0,0,0-.391-1.34,1.645,1.645,0,0,0-1.279-.435,2.058,2.058,0,0,0-1.925,1.169V20H36V10.49Zm7.655,4.685a5.562,5.562,0,0,1,1.042-3.538,3.343,3.343,0,0,1,2.764-1.323,3.132,3.132,0,0,1,2.558,1.134l.1-.958h1.925v9.22a3.832,3.832,0,0,1-1.165,2.953,4.436,4.436,0,0,1-3.142,1.081,5.064,5.064,0,0,1-2.043-.435,3.631,3.631,0,0,1-1.516-1.138L47.2,20.888a3.053,3.053,0,0,0,2.426,1.169,2.359,2.359,0,0,0,1.679-.576,2.206,2.206,0,0,0,.615-1.692v-.642a3.144,3.144,0,0,1-2.461,1.028,3.335,3.335,0,0,1-2.729-1.327A5.742,5.742,0,0,1,45.668,15.175Zm2.127.185a3.829,3.829,0,0,0,.584,2.254A1.879,1.879,0,0,0,50,18.436a2.055,2.055,0,0,0,1.916-1.107V13.145a2.026,2.026,0,0,0-1.9-1.081,1.887,1.887,0,0,0-1.639.835A4.287,4.287,0,0,0,47.795,15.359Z" transform="translate(1174.406 6125.063)" fill="#fff"/>
      <path id="Trazado_101714" data-name="Trazado 101714" d="M-49.03-4.166A4.621,4.621,0,0,1-50.542-.971,5.154,5.154,0,0,1-54.048.176a4.99,4.99,0,0,1-2.694-.725,4.759,4.759,0,0,1-1.8-2.061,7.438,7.438,0,0,1-.659-3.1v-1.2a7.491,7.491,0,0,1,.642-3.19,4.835,4.835,0,0,1,1.841-2.127,5.136,5.136,0,0,1,2.773-.747,4.934,4.934,0,0,1,3.41,1.151,4.81,4.81,0,0,1,1.5,3.252h-2.215a3.161,3.161,0,0,0-.8-1.991,2.658,2.658,0,0,0-1.894-.611,2.6,2.6,0,0,0-2.228,1.059A5.289,5.289,0,0,0-56.966-7v1.134a5.611,5.611,0,0,0,.743,3.164,2.465,2.465,0,0,0,2.175,1.09,2.875,2.875,0,0,0,1.969-.589,3.071,3.071,0,0,0,.835-1.96Zm1.38-.677A5.607,5.607,0,0,1-47.1-7.361a4.044,4.044,0,0,1,1.556-1.723,4.383,4.383,0,0,1,2.3-.6,4.154,4.154,0,0,1,3.125,1.239,4.874,4.874,0,0,1,1.3,3.287l.009.5a5.658,5.658,0,0,1-.541,2.514A4,4,0,0,1-40.9-.431,4.415,4.415,0,0,1-43.22.176a4.125,4.125,0,0,1-3.221-1.34A5.133,5.133,0,0,1-47.65-4.737Zm2.136.185a3.832,3.832,0,0,0,.606,2.3,1.971,1.971,0,0,0,1.688.831,1.95,1.95,0,0,0,1.683-.844,4.232,4.232,0,0,0,.6-2.47,3.782,3.782,0,0,0-.62-2.285,1.979,1.979,0,0,0-1.683-.844,1.96,1.96,0,0,0-1.661.831A4.152,4.152,0,0,0-45.514-4.658ZM-34.994-9.51l.062.993A3.422,3.422,0,0,1-32.19-9.686a2.629,2.629,0,0,1,2.61,1.459,3.373,3.373,0,0,1,2.918-1.459,2.965,2.965,0,0,1,2.342.87,3.831,3.831,0,0,1,.787,2.566V0h-2.136V-6.187a1.891,1.891,0,0,0-.4-1.327,1.731,1.731,0,0,0-1.31-.422,1.778,1.778,0,0,0-1.191.391,2.063,2.063,0,0,0-.646,1.024L-29.2,0h-2.136V-6.258a1.523,1.523,0,0,0-1.714-1.679,1.88,1.88,0,0,0-1.819,1.046V0h-2.136V-9.51ZM-15.579-.932A3.312,3.312,0,0,1-18.25.176a2.952,2.952,0,0,1-2.342-.905,3.851,3.851,0,0,1-.8-2.619V-9.51h2.136v6.135q0,1.811,1.5,1.811a2.111,2.111,0,0,0,2.1-1.116V-9.51h2.136V0h-2.013ZM-9.356-9.51l.062,1.1A3.419,3.419,0,0,1-6.526-9.686q2.971,0,3.023,3.4V0H-5.638V-6.161A1.958,1.958,0,0,0-6.029-7.5a1.645,1.645,0,0,0-1.279-.435A2.058,2.058,0,0,0-9.233-6.768V0h-2.136V-9.51ZM.945,0H-1.191V-9.51H.945ZM-1.323-11.979a1.133,1.133,0,0,1,.312-.817,1.179,1.179,0,0,1,.892-.325,1.193,1.193,0,0,1,.9.325,1.125,1.125,0,0,1,.316.817,1.1,1.1,0,0,1-.316.8,1.2,1.2,0,0,1-.9.321,1.188,1.188,0,0,1-.892-.321A1.107,1.107,0,0,1-1.323-11.979Zm8.5,10.45A1.931,1.931,0,0,0,8.5-2a1.591,1.591,0,0,0,.563-1.151h2.013a3.137,3.137,0,0,1-.554,1.657A3.632,3.632,0,0,1,9.119-.272,4.191,4.191,0,0,1,7.2.176,4.055,4.055,0,0,1,4.039-1.116,5.124,5.124,0,0,1,2.87-4.685V-4.9A5.039,5.039,0,0,1,4.03-8.38,4.018,4.018,0,0,1,7.194-9.686,3.907,3.907,0,0,1,9.958-8.7a3.542,3.542,0,0,1,1.121,2.6H9.066a1.956,1.956,0,0,0-.558-1.345,1.8,1.8,0,0,0-1.332-.527,1.879,1.879,0,0,0-1.6.751,3.834,3.834,0,0,0-.571,2.281V-4.6A3.9,3.9,0,0,0,5.563-2.29,1.878,1.878,0,0,0,7.176-1.529ZM18.374,0a3.3,3.3,0,0,1-.246-.888,3.325,3.325,0,0,1-2.5,1.063,3.355,3.355,0,0,1-2.338-.817,2.615,2.615,0,0,1-.905-2.021A2.7,2.7,0,0,1,13.518-5a5.473,5.473,0,0,1,3.23-.813h1.31v-.624a1.666,1.666,0,0,0-.413-1.182,1.638,1.638,0,0,0-1.257-.444,1.881,1.881,0,0,0-1.2.365,1.129,1.129,0,0,0-.466.927H12.59a2.37,2.37,0,0,1,.519-1.463A3.455,3.455,0,0,1,14.52-9.3a4.955,4.955,0,0,1,1.991-.387,3.99,3.99,0,0,1,2.663.839,2.993,2.993,0,0,1,1.02,2.36V-2.2a4.861,4.861,0,0,0,.36,2.048V0ZM16.027-1.538a2.429,2.429,0,0,0,1.191-.308,2.055,2.055,0,0,0,.839-.826V-4.465H16.906a3.148,3.148,0,0,0-1.784.413,1.338,1.338,0,0,0-.6,1.169,1.248,1.248,0,0,0,.409.98A1.583,1.583,0,0,0,16.027-1.538Zm10.31.009A1.931,1.931,0,0,0,27.664-2a1.591,1.591,0,0,0,.563-1.151h2.013a3.137,3.137,0,0,1-.554,1.657A3.632,3.632,0,0,1,28.279-.272a4.191,4.191,0,0,1-1.916.448A4.055,4.055,0,0,1,23.2-1.116,5.124,5.124,0,0,1,22.03-4.685V-4.9A5.039,5.039,0,0,1,23.19-8.38a4.018,4.018,0,0,1,3.164-1.305,3.907,3.907,0,0,1,2.764.989,3.542,3.542,0,0,1,1.121,2.6H28.226a1.956,1.956,0,0,0-.558-1.345,1.8,1.8,0,0,0-1.332-.527,1.879,1.879,0,0,0-1.6.751,3.834,3.834,0,0,0-.571,2.281V-4.6a3.9,3.9,0,0,0,.558,2.307A1.878,1.878,0,0,0,26.336-1.529ZM34.124,0H31.988V-9.51h2.136ZM31.856-11.979a1.133,1.133,0,0,1,.312-.817,1.179,1.179,0,0,1,.892-.325,1.193,1.193,0,0,1,.9.325,1.125,1.125,0,0,1,.316.817,1.1,1.1,0,0,1-.316.8,1.2,1.2,0,0,1-.9.321,1.188,1.188,0,0,1-.892-.321A1.107,1.107,0,0,1,31.856-11.979Zm4.192,7.137A5.607,5.607,0,0,1,36.6-7.361a4.044,4.044,0,0,1,1.556-1.723,4.383,4.383,0,0,1,2.3-.6,4.154,4.154,0,0,1,3.125,1.239,4.874,4.874,0,0,1,1.3,3.287l.009.5a5.658,5.658,0,0,1-.541,2.514A4,4,0,0,1,42.8-.431a4.415,4.415,0,0,1-2.325.606,4.125,4.125,0,0,1-3.221-1.34,5.133,5.133,0,0,1-1.208-3.573Zm2.136.185a3.832,3.832,0,0,0,.606,2.3,1.971,1.971,0,0,0,1.688.831,1.95,1.95,0,0,0,1.683-.844,4.232,4.232,0,0,0,.6-2.47,3.782,3.782,0,0,0-.62-2.285,1.979,1.979,0,0,0-1.683-.844,1.96,1.96,0,0,0-1.661.831A4.152,4.152,0,0,0,38.184-4.658ZM41.049-13.5h2.435l-2.435,2.663H39.335Zm7.629,3.99.062,1.1a3.419,3.419,0,0,1,2.769-1.274q2.971,0,3.023,3.4V0H52.4V-6.161A1.958,1.958,0,0,0,52-7.5a1.645,1.645,0,0,0-1.279-.435A2.058,2.058,0,0,0,48.8-6.768V0H46.666V-9.51ZM-39.454,15.342a5.712,5.712,0,0,1-.989,3.524,3.221,3.221,0,0,1-2.72,1.31,3.1,3.1,0,0,1-2.6-1.2L-45.87,20H-47.8V6.5h2.136v4.9a3.091,3.091,0,0,1,2.487-1.09,3.258,3.258,0,0,1,2.733,1.292,5.807,5.807,0,0,1,.993,3.612Zm-2.136-.185a4.037,4.037,0,0,0-.545-2.32,1.815,1.815,0,0,0-1.582-.773,1.983,1.983,0,0,0-1.951,1.213V17.2A2,2,0,0,0-43.7,18.436a1.8,1.8,0,0,0,1.547-.747,3.912,3.912,0,0,0,.563-2.259Zm3.524,0a5.607,5.607,0,0,1,.554-2.518,4.044,4.044,0,0,1,1.556-1.723,4.383,4.383,0,0,1,2.3-.6,4.154,4.154,0,0,1,3.125,1.239,4.874,4.874,0,0,1,1.3,3.287l.009.5a5.658,5.658,0,0,1-.541,2.514,4,4,0,0,1-1.547,1.714,4.415,4.415,0,0,1-2.325.606,4.125,4.125,0,0,1-3.221-1.34,5.133,5.133,0,0,1-1.208-3.573Zm2.136.185a3.832,3.832,0,0,0,.606,2.3,1.971,1.971,0,0,0,1.688.831,1.95,1.95,0,0,0,1.683-.844,4.232,4.232,0,0,0,.6-2.47,3.782,3.782,0,0,0-.62-2.285,1.979,1.979,0,0,0-1.683-.844,1.96,1.96,0,0,0-1.661.831A4.152,4.152,0,0,0-35.93,15.342Zm12.419,3.129A1.931,1.931,0,0,0-22.184,18a1.591,1.591,0,0,0,.563-1.151h2.013a3.137,3.137,0,0,1-.554,1.657,3.632,3.632,0,0,1-1.406,1.217,4.191,4.191,0,0,1-1.916.448,4.055,4.055,0,0,1-3.164-1.292,5.124,5.124,0,0,1-1.169-3.568V15.1a5.039,5.039,0,0,1,1.16-3.476,4.018,4.018,0,0,1,3.164-1.305,3.907,3.907,0,0,1,2.764.989,3.542,3.542,0,0,1,1.121,2.6h-2.013a1.956,1.956,0,0,0-.558-1.345,1.8,1.8,0,0,0-1.332-.527,1.879,1.879,0,0,0-1.6.751,3.834,3.834,0,0,0-.571,2.281V15.4a3.9,3.9,0,0,0,.558,2.307A1.878,1.878,0,0,0-23.511,18.471ZM-12.313,20a3.3,3.3,0,0,1-.246-.888,3.325,3.325,0,0,1-2.5,1.063,3.355,3.355,0,0,1-2.338-.817,2.615,2.615,0,0,1-.905-2.021A2.7,2.7,0,0,1-17.169,15a5.473,5.473,0,0,1,3.23-.813h1.31v-.624a1.666,1.666,0,0,0-.413-1.182A1.638,1.638,0,0,0-14.3,11.94a1.881,1.881,0,0,0-1.2.365,1.129,1.129,0,0,0-.466.927H-18.1a2.37,2.37,0,0,1,.519-1.463A3.455,3.455,0,0,1-16.167,10.7a4.955,4.955,0,0,1,1.991-.387,3.99,3.99,0,0,1,2.663.839,2.993,2.993,0,0,1,1.02,2.36V17.8a4.861,4.861,0,0,0,.36,2.048V20Zm-2.347-1.538a2.429,2.429,0,0,0,1.191-.308,2.055,2.055,0,0,0,.839-.826V15.535h-1.151a3.148,3.148,0,0,0-1.784.413,1.338,1.338,0,0,0-.6,1.169,1.248,1.248,0,0,0,.409.98A1.583,1.583,0,0,0-14.66,18.462ZM1.907,20a3.3,3.3,0,0,1-.246-.888,3.325,3.325,0,0,1-2.5,1.063,3.355,3.355,0,0,1-2.338-.817,2.615,2.615,0,0,1-.905-2.021A2.7,2.7,0,0,1-2.949,15a5.473,5.473,0,0,1,3.23-.813h1.31v-.624a1.666,1.666,0,0,0-.413-1.182A1.638,1.638,0,0,0-.079,11.94a1.881,1.881,0,0,0-1.2.365,1.129,1.129,0,0,0-.466.927H-3.876a2.37,2.37,0,0,1,.519-1.463A3.455,3.455,0,0,1-1.947,10.7a4.955,4.955,0,0,1,1.991-.387,3.99,3.99,0,0,1,2.663.839,2.993,2.993,0,0,1,1.02,2.36V17.8a4.861,4.861,0,0,0,.36,2.048V20ZM-.439,18.462a2.429,2.429,0,0,0,1.191-.308,2.055,2.055,0,0,0,.839-.826V15.535H.439a3.148,3.148,0,0,0-1.784.413,1.338,1.338,0,0,0-.6,1.169,1.248,1.248,0,0,0,.409.98A1.583,1.583,0,0,0-.439,18.462Zm19.23-3.12a5.712,5.712,0,0,1-.989,3.524,3.221,3.221,0,0,1-2.72,1.31,3.1,3.1,0,0,1-2.6-1.2L12.375,20H10.441V6.5h2.136v4.9a3.091,3.091,0,0,1,2.487-1.09A3.258,3.258,0,0,1,17.8,11.606a5.807,5.807,0,0,1,.993,3.612Zm-2.136-.185a4.037,4.037,0,0,0-.545-2.32,1.815,1.815,0,0,0-1.582-.773,1.983,1.983,0,0,0-1.951,1.213V17.2a2,2,0,0,0,1.969,1.239,1.8,1.8,0,0,0,1.547-.747,3.912,3.912,0,0,0,.563-2.259Zm3.524,0a5.607,5.607,0,0,1,.554-2.518,4.044,4.044,0,0,1,1.556-1.723,4.383,4.383,0,0,1,2.3-.6,4.154,4.154,0,0,1,3.125,1.239,4.874,4.874,0,0,1,1.3,3.287l.009.5a5.658,5.658,0,0,1-.541,2.514,4,4,0,0,1-1.547,1.714,4.415,4.415,0,0,1-2.325.606,4.125,4.125,0,0,1-3.221-1.34,5.133,5.133,0,0,1-1.208-3.573Zm2.136.185a3.832,3.832,0,0,0,.606,2.3,1.971,1.971,0,0,0,1.688.831,1.95,1.95,0,0,0,1.683-.844,4.232,4.232,0,0,0,.6-2.47,3.782,3.782,0,0,0-.62-2.285,2.089,2.089,0,0,0-3.344-.013A4.152,4.152,0,0,0,22.315,15.342Zm12.419,3.129A1.931,1.931,0,0,0,36.062,18a1.591,1.591,0,0,0,.563-1.151h2.013a3.137,3.137,0,0,1-.554,1.657,3.632,3.632,0,0,1-1.406,1.217,4.191,4.191,0,0,1-1.916.448A4.055,4.055,0,0,1,31.6,18.884a5.124,5.124,0,0,1-1.169-3.568V15.1a5.039,5.039,0,0,1,1.16-3.476,4.018,4.018,0,0,1,3.164-1.305,3.907,3.907,0,0,1,2.764.989,3.542,3.542,0,0,1,1.121,2.6H36.624a1.956,1.956,0,0,0-.558-1.345,1.8,1.8,0,0,0-1.332-.527,1.879,1.879,0,0,0-1.6.751,3.834,3.834,0,0,0-.571,2.281V15.4a3.9,3.9,0,0,0,.558,2.307A1.878,1.878,0,0,0,34.734,18.471ZM45.932,20a3.3,3.3,0,0,1-.246-.888,3.593,3.593,0,0,1-4.834.246,2.615,2.615,0,0,1-.905-2.021A2.7,2.7,0,0,1,41.076,15a5.473,5.473,0,0,1,3.23-.813h1.31v-.624a1.666,1.666,0,0,0-.413-1.182,1.638,1.638,0,0,0-1.257-.444,1.881,1.881,0,0,0-1.2.365,1.129,1.129,0,0,0-.466.927H40.148a2.37,2.37,0,0,1,.519-1.463A3.455,3.455,0,0,1,42.078,10.7a4.955,4.955,0,0,1,1.991-.387,3.99,3.99,0,0,1,2.663.839,2.993,2.993,0,0,1,1.02,2.36V17.8a4.861,4.861,0,0,0,.36,2.048V20Zm-2.347-1.538a2.429,2.429,0,0,0,1.191-.308,2.055,2.055,0,0,0,.839-.826V15.535H44.464a3.148,3.148,0,0,0-1.784.413,1.338,1.338,0,0,0-.6,1.169,1.248,1.248,0,0,0,.409.98A1.583,1.583,0,0,0,43.585,18.462Z" transform="translate(572.486 6125.369)" fill="#fff"/>
    </g>
  </g>
</svg>
